%TF.GenerationSoftware,KiCad,Pcbnew,7.0.5*%
%TF.CreationDate,2023-10-07T14:02:05+02:00*%
%TF.ProjectId,ClockRev5,436c6f63-6b52-4657-9635-2e6b69636164,rev?*%
%TF.SameCoordinates,Original*%
%TF.FileFunction,Legend,Bot*%
%TF.FilePolarity,Positive*%
%FSLAX46Y46*%
G04 Gerber Fmt 4.6, Leading zero omitted, Abs format (unit mm)*
G04 Created by KiCad (PCBNEW 7.0.5) date 2023-10-07 14:02:05*
%MOMM*%
%LPD*%
G01*
G04 APERTURE LIST*
%ADD10C,0.000000*%
%ADD11C,0.150000*%
%ADD12C,0.100000*%
%ADD13C,0.130000*%
%ADD14C,0.120000*%
%ADD15C,0.300000*%
G04 APERTURE END LIST*
D10*
G36*
X112963229Y-108003372D02*
G01*
X111133985Y-108003372D01*
X111028845Y-107736049D01*
X111028845Y-107242883D01*
X111052972Y-107229552D01*
X111127630Y-107184878D01*
X111198365Y-107135579D01*
X111265035Y-107081918D01*
X111327494Y-107024156D01*
X111385600Y-106962555D01*
X111439209Y-106897375D01*
X111488177Y-106828878D01*
X111532360Y-106757326D01*
X111571615Y-106682980D01*
X111605798Y-106606101D01*
X111634766Y-106526951D01*
X111658375Y-106445791D01*
X111676480Y-106362882D01*
X111688939Y-106278486D01*
X111695608Y-106192865D01*
X111696343Y-106106279D01*
X111466528Y-106106279D01*
X110906705Y-107205018D01*
X110990590Y-107425329D01*
X110990590Y-107973786D01*
X109910866Y-107973786D01*
X109910866Y-107425329D01*
X109994751Y-107205018D01*
X109434910Y-106106279D01*
X109205097Y-106106279D01*
X109204713Y-106149676D01*
X109205831Y-106192865D01*
X109208433Y-106235812D01*
X109212500Y-106278486D01*
X109218014Y-106320854D01*
X109224959Y-106362882D01*
X109233315Y-106404539D01*
X109243064Y-106445791D01*
X109254189Y-106486606D01*
X109266673Y-106526951D01*
X109280495Y-106566794D01*
X109295640Y-106606101D01*
X109312089Y-106644841D01*
X109329823Y-106682980D01*
X109348826Y-106720486D01*
X109369079Y-106757326D01*
X109390563Y-106793468D01*
X109413262Y-106828878D01*
X109437157Y-106863525D01*
X109462230Y-106897375D01*
X109488463Y-106930396D01*
X109515839Y-106962555D01*
X109544338Y-106993819D01*
X109573945Y-107024156D01*
X109604639Y-107053533D01*
X109636404Y-107081918D01*
X109669221Y-107109278D01*
X109703073Y-107135579D01*
X109737942Y-107160790D01*
X109773809Y-107184878D01*
X109810656Y-107207809D01*
X109848467Y-107229552D01*
X109872593Y-107242883D01*
X109872593Y-107736049D01*
X109767454Y-108003372D01*
X107938209Y-108003372D01*
X107938209Y-107956662D01*
X107984920Y-107956662D01*
X109735633Y-107956662D01*
X109735633Y-107433927D01*
X109644276Y-107379123D01*
X109557879Y-107318489D01*
X109476630Y-107252366D01*
X109400716Y-107181094D01*
X109330324Y-107105013D01*
X109265642Y-107024464D01*
X109206857Y-106939787D01*
X109154155Y-106851324D01*
X109107724Y-106759414D01*
X109067751Y-106664398D01*
X109034424Y-106566617D01*
X109007930Y-106466412D01*
X108988455Y-106364122D01*
X108976188Y-106260088D01*
X108971314Y-106154651D01*
X108974022Y-106048152D01*
X109457708Y-106048152D01*
X110163797Y-107433927D01*
X109957560Y-107433927D01*
X109957560Y-107927075D01*
X110943879Y-107927075D01*
X110943879Y-107433927D01*
X110737659Y-107433927D01*
X111443749Y-106048152D01*
X111927433Y-106048152D01*
X111929745Y-106101513D01*
X111930138Y-106154651D01*
X111928636Y-106207524D01*
X111925262Y-106260088D01*
X111920040Y-106312302D01*
X111912992Y-106364122D01*
X111904143Y-106415506D01*
X111893516Y-106466412D01*
X111881133Y-106516796D01*
X111867020Y-106566617D01*
X111851198Y-106615832D01*
X111833691Y-106664398D01*
X111814523Y-106712273D01*
X111793718Y-106759414D01*
X111771297Y-106805778D01*
X111747286Y-106851324D01*
X111721707Y-106896007D01*
X111694583Y-106939787D01*
X111665939Y-106982620D01*
X111635797Y-107024464D01*
X111604181Y-107065275D01*
X111571115Y-107105013D01*
X111536621Y-107143633D01*
X111500723Y-107181094D01*
X111463444Y-107217352D01*
X111424809Y-107252366D01*
X111384839Y-107286093D01*
X111343559Y-107318489D01*
X111300993Y-107349514D01*
X111257163Y-107379123D01*
X111212092Y-107407275D01*
X111165805Y-107433927D01*
X111165805Y-107956662D01*
X112916536Y-107956662D01*
X112916536Y-107192272D01*
X111891412Y-107486222D01*
X111987459Y-107375607D01*
X112074225Y-107259365D01*
X112151612Y-107138053D01*
X112219526Y-107012229D01*
X112277868Y-106882452D01*
X112326543Y-106749279D01*
X112365453Y-106613268D01*
X112394504Y-106474977D01*
X112413597Y-106334963D01*
X112422637Y-106193785D01*
X112421526Y-106052000D01*
X112410170Y-105910166D01*
X112388470Y-105768841D01*
X112356331Y-105628584D01*
X112313656Y-105489951D01*
X112260349Y-105353500D01*
X112197107Y-105221361D01*
X112125009Y-105095495D01*
X112044527Y-104976214D01*
X111956135Y-104863828D01*
X111860306Y-104758648D01*
X111757513Y-104660985D01*
X111648231Y-104571149D01*
X111532932Y-104489450D01*
X111412089Y-104416199D01*
X111286176Y-104351708D01*
X111155666Y-104296286D01*
X111021032Y-104250244D01*
X110882749Y-104213893D01*
X110741288Y-104187543D01*
X110597123Y-104171506D01*
X110450728Y-104166091D01*
X110377282Y-104167451D01*
X110304333Y-104171506D01*
X110231943Y-104178216D01*
X110160169Y-104187543D01*
X110089071Y-104199449D01*
X110018708Y-104213893D01*
X109949139Y-104230838D01*
X109880424Y-104250244D01*
X109812621Y-104272073D01*
X109745790Y-104296286D01*
X109679990Y-104322844D01*
X109615280Y-104351708D01*
X109551720Y-104382839D01*
X109489367Y-104416199D01*
X109428283Y-104451749D01*
X109368525Y-104489450D01*
X109310152Y-104529262D01*
X109253225Y-104571149D01*
X109197802Y-104615069D01*
X109143943Y-104660985D01*
X109091706Y-104708858D01*
X109041151Y-104758648D01*
X108992336Y-104810318D01*
X108945322Y-104863828D01*
X108900167Y-104919140D01*
X108856930Y-104976214D01*
X108815670Y-105035012D01*
X108776448Y-105095495D01*
X108739321Y-105157624D01*
X108704349Y-105221361D01*
X108671592Y-105286666D01*
X108641107Y-105353500D01*
X108587800Y-105489951D01*
X108545125Y-105628584D01*
X108512986Y-105768841D01*
X108491286Y-105910166D01*
X108479930Y-106052000D01*
X108478819Y-106193785D01*
X108487858Y-106334963D01*
X108506951Y-106474977D01*
X108536000Y-106613268D01*
X108574910Y-106749279D01*
X108623583Y-106882452D01*
X108681924Y-107012229D01*
X108749835Y-107138053D01*
X108827220Y-107259365D01*
X108913983Y-107375607D01*
X109010027Y-107486222D01*
X107984920Y-107192272D01*
X107984920Y-107956662D01*
X107938209Y-107956662D01*
X107938209Y-107161445D01*
X108293071Y-107009825D01*
X108687429Y-107122906D01*
X108628065Y-107008106D01*
X108576492Y-106890540D01*
X108532724Y-106770589D01*
X108496774Y-106648637D01*
X108468654Y-106525066D01*
X108448377Y-106400259D01*
X108435956Y-106274598D01*
X108431405Y-106148467D01*
X108434734Y-106022247D01*
X108445958Y-105896322D01*
X108465090Y-105771073D01*
X108492142Y-105646884D01*
X108527126Y-105524138D01*
X108570057Y-105403216D01*
X108620946Y-105284501D01*
X108679806Y-105168377D01*
X108750000Y-105050000D01*
X108827410Y-104937590D01*
X108911645Y-104831375D01*
X109002317Y-104731588D01*
X109099036Y-104638458D01*
X109201413Y-104552217D01*
X109309059Y-104473095D01*
X109421584Y-104401322D01*
X109538600Y-104337129D01*
X109659716Y-104280748D01*
X109784543Y-104232407D01*
X109912693Y-104192339D01*
X110043776Y-104160773D01*
X110177402Y-104137941D01*
X110313183Y-104124072D01*
X110450728Y-104119398D01*
X110519696Y-104120571D01*
X110588271Y-104124072D01*
X110656405Y-104129872D01*
X110724049Y-104137941D01*
X110791155Y-104148251D01*
X110857674Y-104160773D01*
X110923557Y-104175479D01*
X110988756Y-104192339D01*
X111053221Y-104211325D01*
X111116905Y-104232407D01*
X111179758Y-104255558D01*
X111241732Y-104280748D01*
X111302778Y-104307948D01*
X111362848Y-104337129D01*
X111421893Y-104368264D01*
X111479863Y-104401322D01*
X111536712Y-104436275D01*
X111592389Y-104473095D01*
X111646846Y-104511752D01*
X111700034Y-104552217D01*
X111751906Y-104594462D01*
X111802411Y-104638458D01*
X111851502Y-104684177D01*
X111899130Y-104731588D01*
X111945246Y-104780664D01*
X111989801Y-104831375D01*
X112032747Y-104883693D01*
X112074034Y-104937590D01*
X112113616Y-104993035D01*
X112151442Y-105050000D01*
X112187464Y-105108458D01*
X112221633Y-105168377D01*
X112280496Y-105284501D01*
X112331388Y-105403216D01*
X112374321Y-105524138D01*
X112409307Y-105646884D01*
X112436360Y-105771073D01*
X112455493Y-105896322D01*
X112466717Y-106022247D01*
X112470047Y-106148467D01*
X112465495Y-106274598D01*
X112453074Y-106400259D01*
X112432796Y-106525066D01*
X112404675Y-106648637D01*
X112368723Y-106770589D01*
X112324953Y-106890540D01*
X112273378Y-107008106D01*
X112214010Y-107122906D01*
X112608368Y-107009825D01*
X112963229Y-107161445D01*
X112963229Y-107956662D01*
X112963229Y-108003372D01*
G37*
G36*
X111810168Y-105554986D02*
G01*
X110623337Y-105554986D01*
X110623337Y-106048152D01*
X111056304Y-106048152D01*
X110450728Y-107236661D01*
X109845134Y-106048152D01*
X110278119Y-106048152D01*
X110278119Y-105554986D01*
X109091271Y-105554986D01*
X109113406Y-105508293D01*
X109375932Y-105508293D01*
X110313006Y-105508293D01*
X110346599Y-105621906D01*
X110346599Y-106106279D01*
X109997783Y-106106279D01*
X110450728Y-106995201D01*
X110903656Y-106106279D01*
X110554840Y-106106279D01*
X110554840Y-105621906D01*
X110588433Y-105508293D01*
X111525506Y-105508293D01*
X111481630Y-105438814D01*
X111433622Y-105372838D01*
X111381702Y-105310501D01*
X111326089Y-105251938D01*
X111267005Y-105197284D01*
X111204667Y-105146674D01*
X111139297Y-105100243D01*
X111071113Y-105058126D01*
X111000336Y-105020458D01*
X110927185Y-104987375D01*
X110851879Y-104959010D01*
X110774639Y-104935500D01*
X110695684Y-104916980D01*
X110615234Y-104903583D01*
X110533509Y-104895447D01*
X110450728Y-104892704D01*
X110409220Y-104893393D01*
X110367947Y-104895447D01*
X110326939Y-104898849D01*
X110286221Y-104903583D01*
X110245823Y-104909633D01*
X110205771Y-104916980D01*
X110166092Y-104925608D01*
X110126815Y-104935500D01*
X110087966Y-104946640D01*
X110049573Y-104959010D01*
X110011664Y-104972594D01*
X109974266Y-104987375D01*
X109937407Y-105003335D01*
X109901113Y-105020458D01*
X109865413Y-105038728D01*
X109830334Y-105058126D01*
X109795904Y-105078637D01*
X109762149Y-105100243D01*
X109729097Y-105122928D01*
X109696777Y-105146674D01*
X109665214Y-105171465D01*
X109634438Y-105197284D01*
X109604475Y-105224114D01*
X109575352Y-105251938D01*
X109547097Y-105280740D01*
X109519739Y-105310501D01*
X109493303Y-105341206D01*
X109467818Y-105372838D01*
X109443311Y-105405379D01*
X109419809Y-105438814D01*
X109397341Y-105473124D01*
X109375932Y-105508293D01*
X109113406Y-105508293D01*
X109138496Y-105455365D01*
X109192425Y-105360461D01*
X109252699Y-105270511D01*
X109318959Y-105185750D01*
X109390849Y-105106414D01*
X109468009Y-105032740D01*
X109550082Y-104964963D01*
X109636710Y-104903318D01*
X109727534Y-104848043D01*
X109822196Y-104799372D01*
X109920339Y-104757542D01*
X110021605Y-104722788D01*
X110125634Y-104695347D01*
X110232070Y-104675454D01*
X110340554Y-104663346D01*
X110450728Y-104659257D01*
X110506003Y-104660284D01*
X110560899Y-104663346D01*
X110615373Y-104668412D01*
X110669380Y-104675454D01*
X110722876Y-104684443D01*
X110775814Y-104695347D01*
X110828151Y-104708139D01*
X110879841Y-104722788D01*
X110930841Y-104739266D01*
X110981105Y-104757542D01*
X111030588Y-104777587D01*
X111079247Y-104799372D01*
X111127035Y-104822867D01*
X111173908Y-104848043D01*
X111219822Y-104874870D01*
X111264731Y-104903318D01*
X111308591Y-104933359D01*
X111351358Y-104964963D01*
X111392986Y-104998099D01*
X111433430Y-105032740D01*
X111472647Y-105068855D01*
X111510590Y-105106414D01*
X111547216Y-105145389D01*
X111582479Y-105185750D01*
X111616336Y-105227467D01*
X111648740Y-105270511D01*
X111679647Y-105314852D01*
X111709014Y-105360461D01*
X111736794Y-105407308D01*
X111762942Y-105455365D01*
X111787416Y-105504600D01*
X111789083Y-105508293D01*
X111810168Y-105554986D01*
G37*
D11*
X105035839Y-103512200D02*
X104892982Y-103559819D01*
X104892982Y-103559819D02*
X104654887Y-103559819D01*
X104654887Y-103559819D02*
X104559649Y-103512200D01*
X104559649Y-103512200D02*
X104512030Y-103464580D01*
X104512030Y-103464580D02*
X104464411Y-103369342D01*
X104464411Y-103369342D02*
X104464411Y-103274104D01*
X104464411Y-103274104D02*
X104512030Y-103178866D01*
X104512030Y-103178866D02*
X104559649Y-103131247D01*
X104559649Y-103131247D02*
X104654887Y-103083628D01*
X104654887Y-103083628D02*
X104845363Y-103036009D01*
X104845363Y-103036009D02*
X104940601Y-102988390D01*
X104940601Y-102988390D02*
X104988220Y-102940771D01*
X104988220Y-102940771D02*
X105035839Y-102845533D01*
X105035839Y-102845533D02*
X105035839Y-102750295D01*
X105035839Y-102750295D02*
X104988220Y-102655057D01*
X104988220Y-102655057D02*
X104940601Y-102607438D01*
X104940601Y-102607438D02*
X104845363Y-102559819D01*
X104845363Y-102559819D02*
X104607268Y-102559819D01*
X104607268Y-102559819D02*
X104464411Y-102607438D01*
X104178696Y-102893152D02*
X103797744Y-102893152D01*
X104035839Y-102559819D02*
X104035839Y-103416961D01*
X104035839Y-103416961D02*
X103988220Y-103512200D01*
X103988220Y-103512200D02*
X103892982Y-103559819D01*
X103892982Y-103559819D02*
X103797744Y-103559819D01*
X103083458Y-103512200D02*
X103178696Y-103559819D01*
X103178696Y-103559819D02*
X103369172Y-103559819D01*
X103369172Y-103559819D02*
X103464410Y-103512200D01*
X103464410Y-103512200D02*
X103512029Y-103416961D01*
X103512029Y-103416961D02*
X103512029Y-103036009D01*
X103512029Y-103036009D02*
X103464410Y-102940771D01*
X103464410Y-102940771D02*
X103369172Y-102893152D01*
X103369172Y-102893152D02*
X103178696Y-102893152D01*
X103178696Y-102893152D02*
X103083458Y-102940771D01*
X103083458Y-102940771D02*
X103035839Y-103036009D01*
X103035839Y-103036009D02*
X103035839Y-103131247D01*
X103035839Y-103131247D02*
X103512029Y-103226485D01*
X102607267Y-103559819D02*
X102607267Y-102893152D01*
X102607267Y-102559819D02*
X102654886Y-102607438D01*
X102654886Y-102607438D02*
X102607267Y-102655057D01*
X102607267Y-102655057D02*
X102559648Y-102607438D01*
X102559648Y-102607438D02*
X102607267Y-102559819D01*
X102607267Y-102559819D02*
X102607267Y-102655057D01*
X102131077Y-102893152D02*
X102131077Y-103559819D01*
X102131077Y-102988390D02*
X102083458Y-102940771D01*
X102083458Y-102940771D02*
X101988220Y-102893152D01*
X101988220Y-102893152D02*
X101845363Y-102893152D01*
X101845363Y-102893152D02*
X101750125Y-102940771D01*
X101750125Y-102940771D02*
X101702506Y-103036009D01*
X101702506Y-103036009D02*
X101702506Y-103559819D01*
X100797744Y-103559819D02*
X100797744Y-103036009D01*
X100797744Y-103036009D02*
X100845363Y-102940771D01*
X100845363Y-102940771D02*
X100940601Y-102893152D01*
X100940601Y-102893152D02*
X101131077Y-102893152D01*
X101131077Y-102893152D02*
X101226315Y-102940771D01*
X100797744Y-103512200D02*
X100892982Y-103559819D01*
X100892982Y-103559819D02*
X101131077Y-103559819D01*
X101131077Y-103559819D02*
X101226315Y-103512200D01*
X101226315Y-103512200D02*
X101273934Y-103416961D01*
X101273934Y-103416961D02*
X101273934Y-103321723D01*
X101273934Y-103321723D02*
X101226315Y-103226485D01*
X101226315Y-103226485D02*
X101131077Y-103178866D01*
X101131077Y-103178866D02*
X100892982Y-103178866D01*
X100892982Y-103178866D02*
X100797744Y-103131247D01*
X100321553Y-103559819D02*
X100321553Y-102893152D01*
X100321553Y-103083628D02*
X100273934Y-102988390D01*
X100273934Y-102988390D02*
X100226315Y-102940771D01*
X100226315Y-102940771D02*
X100131077Y-102893152D01*
X100131077Y-102893152D02*
X100035839Y-102893152D01*
X98988219Y-103274104D02*
X98512029Y-103274104D01*
X99083457Y-103559819D02*
X98750124Y-102559819D01*
X98750124Y-102559819D02*
X98416791Y-103559819D01*
X98083457Y-103464580D02*
X98035838Y-103512200D01*
X98035838Y-103512200D02*
X98083457Y-103559819D01*
X98083457Y-103559819D02*
X98131076Y-103512200D01*
X98131076Y-103512200D02*
X98083457Y-103464580D01*
X98083457Y-103464580D02*
X98083457Y-103559819D01*
X104988220Y-105169819D02*
X104988220Y-104169819D01*
X104988220Y-104169819D02*
X104416792Y-105169819D01*
X104416792Y-105169819D02*
X104416792Y-104169819D01*
X103559649Y-105122200D02*
X103654887Y-105169819D01*
X103654887Y-105169819D02*
X103845363Y-105169819D01*
X103845363Y-105169819D02*
X103940601Y-105122200D01*
X103940601Y-105122200D02*
X103988220Y-105026961D01*
X103988220Y-105026961D02*
X103988220Y-104646009D01*
X103988220Y-104646009D02*
X103940601Y-104550771D01*
X103940601Y-104550771D02*
X103845363Y-104503152D01*
X103845363Y-104503152D02*
X103654887Y-104503152D01*
X103654887Y-104503152D02*
X103559649Y-104550771D01*
X103559649Y-104550771D02*
X103512030Y-104646009D01*
X103512030Y-104646009D02*
X103512030Y-104741247D01*
X103512030Y-104741247D02*
X103988220Y-104836485D01*
X102654887Y-105169819D02*
X102654887Y-104169819D01*
X102654887Y-105122200D02*
X102750125Y-105169819D01*
X102750125Y-105169819D02*
X102940601Y-105169819D01*
X102940601Y-105169819D02*
X103035839Y-105122200D01*
X103035839Y-105122200D02*
X103083458Y-105074580D01*
X103083458Y-105074580D02*
X103131077Y-104979342D01*
X103131077Y-104979342D02*
X103131077Y-104693628D01*
X103131077Y-104693628D02*
X103083458Y-104598390D01*
X103083458Y-104598390D02*
X103035839Y-104550771D01*
X103035839Y-104550771D02*
X102940601Y-104503152D01*
X102940601Y-104503152D02*
X102750125Y-104503152D01*
X102750125Y-104503152D02*
X102654887Y-104550771D01*
X102035839Y-105169819D02*
X102131077Y-105122200D01*
X102131077Y-105122200D02*
X102178696Y-105026961D01*
X102178696Y-105026961D02*
X102178696Y-104169819D01*
X101226315Y-105169819D02*
X101226315Y-104646009D01*
X101226315Y-104646009D02*
X101273934Y-104550771D01*
X101273934Y-104550771D02*
X101369172Y-104503152D01*
X101369172Y-104503152D02*
X101559648Y-104503152D01*
X101559648Y-104503152D02*
X101654886Y-104550771D01*
X101226315Y-105122200D02*
X101321553Y-105169819D01*
X101321553Y-105169819D02*
X101559648Y-105169819D01*
X101559648Y-105169819D02*
X101654886Y-105122200D01*
X101654886Y-105122200D02*
X101702505Y-105026961D01*
X101702505Y-105026961D02*
X101702505Y-104931723D01*
X101702505Y-104931723D02*
X101654886Y-104836485D01*
X101654886Y-104836485D02*
X101559648Y-104788866D01*
X101559648Y-104788866D02*
X101321553Y-104788866D01*
X101321553Y-104788866D02*
X101226315Y-104741247D01*
X100750124Y-104503152D02*
X100750124Y-105169819D01*
X100750124Y-104598390D02*
X100702505Y-104550771D01*
X100702505Y-104550771D02*
X100607267Y-104503152D01*
X100607267Y-104503152D02*
X100464410Y-104503152D01*
X100464410Y-104503152D02*
X100369172Y-104550771D01*
X100369172Y-104550771D02*
X100321553Y-104646009D01*
X100321553Y-104646009D02*
X100321553Y-105169819D01*
X99416791Y-105169819D02*
X99416791Y-104169819D01*
X99416791Y-105122200D02*
X99512029Y-105169819D01*
X99512029Y-105169819D02*
X99702505Y-105169819D01*
X99702505Y-105169819D02*
X99797743Y-105122200D01*
X99797743Y-105122200D02*
X99845362Y-105074580D01*
X99845362Y-105074580D02*
X99892981Y-104979342D01*
X99892981Y-104979342D02*
X99892981Y-104693628D01*
X99892981Y-104693628D02*
X99845362Y-104598390D01*
X99845362Y-104598390D02*
X99797743Y-104550771D01*
X99797743Y-104550771D02*
X99702505Y-104503152D01*
X99702505Y-104503152D02*
X99512029Y-104503152D01*
X99512029Y-104503152D02*
X99416791Y-104550771D01*
X110245363Y-108994819D02*
X110340601Y-108947200D01*
X110340601Y-108947200D02*
X110388220Y-108899580D01*
X110388220Y-108899580D02*
X110435839Y-108804342D01*
X110435839Y-108804342D02*
X110435839Y-108518628D01*
X110435839Y-108518628D02*
X110388220Y-108423390D01*
X110388220Y-108423390D02*
X110340601Y-108375771D01*
X110340601Y-108375771D02*
X110245363Y-108328152D01*
X110245363Y-108328152D02*
X110102506Y-108328152D01*
X110102506Y-108328152D02*
X110007268Y-108375771D01*
X110007268Y-108375771D02*
X109959649Y-108423390D01*
X109959649Y-108423390D02*
X109912030Y-108518628D01*
X109912030Y-108518628D02*
X109912030Y-108804342D01*
X109912030Y-108804342D02*
X109959649Y-108899580D01*
X109959649Y-108899580D02*
X110007268Y-108947200D01*
X110007268Y-108947200D02*
X110102506Y-108994819D01*
X110102506Y-108994819D02*
X110245363Y-108994819D01*
X109483458Y-108994819D02*
X109483458Y-108328152D01*
X109483458Y-108423390D02*
X109435839Y-108375771D01*
X109435839Y-108375771D02*
X109340601Y-108328152D01*
X109340601Y-108328152D02*
X109197744Y-108328152D01*
X109197744Y-108328152D02*
X109102506Y-108375771D01*
X109102506Y-108375771D02*
X109054887Y-108471009D01*
X109054887Y-108471009D02*
X109054887Y-108994819D01*
X109054887Y-108471009D02*
X109007268Y-108375771D01*
X109007268Y-108375771D02*
X108912030Y-108328152D01*
X108912030Y-108328152D02*
X108769173Y-108328152D01*
X108769173Y-108328152D02*
X108673934Y-108375771D01*
X108673934Y-108375771D02*
X108626315Y-108471009D01*
X108626315Y-108471009D02*
X108626315Y-108994819D01*
X107769173Y-108947200D02*
X107864411Y-108994819D01*
X107864411Y-108994819D02*
X108054887Y-108994819D01*
X108054887Y-108994819D02*
X108150125Y-108947200D01*
X108150125Y-108947200D02*
X108197744Y-108851961D01*
X108197744Y-108851961D02*
X108197744Y-108471009D01*
X108197744Y-108471009D02*
X108150125Y-108375771D01*
X108150125Y-108375771D02*
X108054887Y-108328152D01*
X108054887Y-108328152D02*
X107864411Y-108328152D01*
X107864411Y-108328152D02*
X107769173Y-108375771D01*
X107769173Y-108375771D02*
X107721554Y-108471009D01*
X107721554Y-108471009D02*
X107721554Y-108566247D01*
X107721554Y-108566247D02*
X108197744Y-108661485D01*
X106864411Y-108328152D02*
X106864411Y-109137676D01*
X106864411Y-109137676D02*
X106912030Y-109232914D01*
X106912030Y-109232914D02*
X106959649Y-109280533D01*
X106959649Y-109280533D02*
X107054887Y-109328152D01*
X107054887Y-109328152D02*
X107197744Y-109328152D01*
X107197744Y-109328152D02*
X107292982Y-109280533D01*
X106864411Y-108947200D02*
X106959649Y-108994819D01*
X106959649Y-108994819D02*
X107150125Y-108994819D01*
X107150125Y-108994819D02*
X107245363Y-108947200D01*
X107245363Y-108947200D02*
X107292982Y-108899580D01*
X107292982Y-108899580D02*
X107340601Y-108804342D01*
X107340601Y-108804342D02*
X107340601Y-108518628D01*
X107340601Y-108518628D02*
X107292982Y-108423390D01*
X107292982Y-108423390D02*
X107245363Y-108375771D01*
X107245363Y-108375771D02*
X107150125Y-108328152D01*
X107150125Y-108328152D02*
X106959649Y-108328152D01*
X106959649Y-108328152D02*
X106864411Y-108375771D01*
X105959649Y-108994819D02*
X105959649Y-108471009D01*
X105959649Y-108471009D02*
X106007268Y-108375771D01*
X106007268Y-108375771D02*
X106102506Y-108328152D01*
X106102506Y-108328152D02*
X106292982Y-108328152D01*
X106292982Y-108328152D02*
X106388220Y-108375771D01*
X105959649Y-108947200D02*
X106054887Y-108994819D01*
X106054887Y-108994819D02*
X106292982Y-108994819D01*
X106292982Y-108994819D02*
X106388220Y-108947200D01*
X106388220Y-108947200D02*
X106435839Y-108851961D01*
X106435839Y-108851961D02*
X106435839Y-108756723D01*
X106435839Y-108756723D02*
X106388220Y-108661485D01*
X106388220Y-108661485D02*
X106292982Y-108613866D01*
X106292982Y-108613866D02*
X106054887Y-108613866D01*
X106054887Y-108613866D02*
X105959649Y-108566247D01*
X105578696Y-108328152D02*
X105340601Y-108994819D01*
X105340601Y-108994819D02*
X105102506Y-108328152D01*
X104721553Y-108899580D02*
X104673934Y-108947200D01*
X104673934Y-108947200D02*
X104721553Y-108994819D01*
X104721553Y-108994819D02*
X104769172Y-108947200D01*
X104769172Y-108947200D02*
X104721553Y-108899580D01*
X104721553Y-108899580D02*
X104721553Y-108994819D01*
X104245363Y-108328152D02*
X104245363Y-108994819D01*
X104245363Y-108423390D02*
X104197744Y-108375771D01*
X104197744Y-108375771D02*
X104102506Y-108328152D01*
X104102506Y-108328152D02*
X103959649Y-108328152D01*
X103959649Y-108328152D02*
X103864411Y-108375771D01*
X103864411Y-108375771D02*
X103816792Y-108471009D01*
X103816792Y-108471009D02*
X103816792Y-108994819D01*
X103197744Y-108994819D02*
X103292982Y-108947200D01*
X103292982Y-108947200D02*
X103340601Y-108899580D01*
X103340601Y-108899580D02*
X103388220Y-108804342D01*
X103388220Y-108804342D02*
X103388220Y-108518628D01*
X103388220Y-108518628D02*
X103340601Y-108423390D01*
X103340601Y-108423390D02*
X103292982Y-108375771D01*
X103292982Y-108375771D02*
X103197744Y-108328152D01*
X103197744Y-108328152D02*
X103054887Y-108328152D01*
X103054887Y-108328152D02*
X102959649Y-108375771D01*
X102959649Y-108375771D02*
X102912030Y-108423390D01*
X102912030Y-108423390D02*
X102864411Y-108518628D01*
X102864411Y-108518628D02*
X102864411Y-108804342D01*
X102864411Y-108804342D02*
X102912030Y-108899580D01*
X102912030Y-108899580D02*
X102959649Y-108947200D01*
X102959649Y-108947200D02*
X103054887Y-108994819D01*
X103054887Y-108994819D02*
X103197744Y-108994819D01*
X119077506Y-98919819D02*
X119077506Y-99634104D01*
X119077506Y-99634104D02*
X119125125Y-99776961D01*
X119125125Y-99776961D02*
X119220363Y-99872200D01*
X119220363Y-99872200D02*
X119363220Y-99919819D01*
X119363220Y-99919819D02*
X119458458Y-99919819D01*
X118125125Y-99919819D02*
X118601315Y-99919819D01*
X118601315Y-99919819D02*
X118601315Y-98919819D01*
X117220363Y-99824580D02*
X117267982Y-99872200D01*
X117267982Y-99872200D02*
X117410839Y-99919819D01*
X117410839Y-99919819D02*
X117506077Y-99919819D01*
X117506077Y-99919819D02*
X117648934Y-99872200D01*
X117648934Y-99872200D02*
X117744172Y-99776961D01*
X117744172Y-99776961D02*
X117791791Y-99681723D01*
X117791791Y-99681723D02*
X117839410Y-99491247D01*
X117839410Y-99491247D02*
X117839410Y-99348390D01*
X117839410Y-99348390D02*
X117791791Y-99157914D01*
X117791791Y-99157914D02*
X117744172Y-99062676D01*
X117744172Y-99062676D02*
X117648934Y-98967438D01*
X117648934Y-98967438D02*
X117506077Y-98919819D01*
X117506077Y-98919819D02*
X117410839Y-98919819D01*
X117410839Y-98919819D02*
X117267982Y-98967438D01*
X117267982Y-98967438D02*
X117220363Y-99015057D01*
X116506077Y-98919819D02*
X116506077Y-99634104D01*
X116506077Y-99634104D02*
X116553696Y-99776961D01*
X116553696Y-99776961D02*
X116648934Y-99872200D01*
X116648934Y-99872200D02*
X116791791Y-99919819D01*
X116791791Y-99919819D02*
X116887029Y-99919819D01*
X115553696Y-99919819D02*
X116029886Y-99919819D01*
X116029886Y-99919819D02*
X116029886Y-98919819D01*
X114648934Y-99824580D02*
X114696553Y-99872200D01*
X114696553Y-99872200D02*
X114839410Y-99919819D01*
X114839410Y-99919819D02*
X114934648Y-99919819D01*
X114934648Y-99919819D02*
X115077505Y-99872200D01*
X115077505Y-99872200D02*
X115172743Y-99776961D01*
X115172743Y-99776961D02*
X115220362Y-99681723D01*
X115220362Y-99681723D02*
X115267981Y-99491247D01*
X115267981Y-99491247D02*
X115267981Y-99348390D01*
X115267981Y-99348390D02*
X115220362Y-99157914D01*
X115220362Y-99157914D02*
X115172743Y-99062676D01*
X115172743Y-99062676D02*
X115077505Y-98967438D01*
X115077505Y-98967438D02*
X114934648Y-98919819D01*
X114934648Y-98919819D02*
X114839410Y-98919819D01*
X114839410Y-98919819D02*
X114696553Y-98967438D01*
X114696553Y-98967438D02*
X114648934Y-99015057D01*
X113934648Y-98919819D02*
X113934648Y-99634104D01*
X113934648Y-99634104D02*
X113982267Y-99776961D01*
X113982267Y-99776961D02*
X114077505Y-99872200D01*
X114077505Y-99872200D02*
X114220362Y-99919819D01*
X114220362Y-99919819D02*
X114315600Y-99919819D01*
X112982267Y-99919819D02*
X113458457Y-99919819D01*
X113458457Y-99919819D02*
X113458457Y-98919819D01*
X112077505Y-99824580D02*
X112125124Y-99872200D01*
X112125124Y-99872200D02*
X112267981Y-99919819D01*
X112267981Y-99919819D02*
X112363219Y-99919819D01*
X112363219Y-99919819D02*
X112506076Y-99872200D01*
X112506076Y-99872200D02*
X112601314Y-99776961D01*
X112601314Y-99776961D02*
X112648933Y-99681723D01*
X112648933Y-99681723D02*
X112696552Y-99491247D01*
X112696552Y-99491247D02*
X112696552Y-99348390D01*
X112696552Y-99348390D02*
X112648933Y-99157914D01*
X112648933Y-99157914D02*
X112601314Y-99062676D01*
X112601314Y-99062676D02*
X112506076Y-98967438D01*
X112506076Y-98967438D02*
X112363219Y-98919819D01*
X112363219Y-98919819D02*
X112267981Y-98919819D01*
X112267981Y-98919819D02*
X112125124Y-98967438D01*
X112125124Y-98967438D02*
X112077505Y-99015057D01*
X111363219Y-98919819D02*
X111363219Y-99634104D01*
X111363219Y-99634104D02*
X111410838Y-99776961D01*
X111410838Y-99776961D02*
X111506076Y-99872200D01*
X111506076Y-99872200D02*
X111648933Y-99919819D01*
X111648933Y-99919819D02*
X111744171Y-99919819D01*
X110410838Y-99919819D02*
X110887028Y-99919819D01*
X110887028Y-99919819D02*
X110887028Y-98919819D01*
X109506076Y-99824580D02*
X109553695Y-99872200D01*
X109553695Y-99872200D02*
X109696552Y-99919819D01*
X109696552Y-99919819D02*
X109791790Y-99919819D01*
X109791790Y-99919819D02*
X109934647Y-99872200D01*
X109934647Y-99872200D02*
X110029885Y-99776961D01*
X110029885Y-99776961D02*
X110077504Y-99681723D01*
X110077504Y-99681723D02*
X110125123Y-99491247D01*
X110125123Y-99491247D02*
X110125123Y-99348390D01*
X110125123Y-99348390D02*
X110077504Y-99157914D01*
X110077504Y-99157914D02*
X110029885Y-99062676D01*
X110029885Y-99062676D02*
X109934647Y-98967438D01*
X109934647Y-98967438D02*
X109791790Y-98919819D01*
X109791790Y-98919819D02*
X109696552Y-98919819D01*
X109696552Y-98919819D02*
X109553695Y-98967438D01*
X109553695Y-98967438D02*
X109506076Y-99015057D01*
%TO.C,C2*%
X111263588Y-88772112D02*
X111263588Y-88839456D01*
X111263588Y-88839456D02*
X111330932Y-88974143D01*
X111330932Y-88974143D02*
X111398275Y-89041486D01*
X111398275Y-89041486D02*
X111532962Y-89108830D01*
X111532962Y-89108830D02*
X111667649Y-89108830D01*
X111667649Y-89108830D02*
X111768664Y-89075158D01*
X111768664Y-89075158D02*
X111937023Y-88974143D01*
X111937023Y-88974143D02*
X112038038Y-88873128D01*
X112038038Y-88873128D02*
X112139054Y-88704769D01*
X112139054Y-88704769D02*
X112172725Y-88603754D01*
X112172725Y-88603754D02*
X112172725Y-88469067D01*
X112172725Y-88469067D02*
X112105382Y-88334380D01*
X112105382Y-88334380D02*
X112038038Y-88267036D01*
X112038038Y-88267036D02*
X111903351Y-88199693D01*
X111903351Y-88199693D02*
X111836008Y-88199693D01*
X111566634Y-87930319D02*
X111566634Y-87862975D01*
X111566634Y-87862975D02*
X111532962Y-87761960D01*
X111532962Y-87761960D02*
X111364603Y-87593601D01*
X111364603Y-87593601D02*
X111263588Y-87559929D01*
X111263588Y-87559929D02*
X111196245Y-87559929D01*
X111196245Y-87559929D02*
X111095229Y-87593601D01*
X111095229Y-87593601D02*
X111027886Y-87660945D01*
X111027886Y-87660945D02*
X110960542Y-87795632D01*
X110960542Y-87795632D02*
X110960542Y-88603754D01*
X110960542Y-88603754D02*
X110522810Y-88166021D01*
%TO.C,R40*%
X92415313Y-115920678D02*
X92169587Y-115393908D01*
X92701027Y-115425807D02*
X91835002Y-114925807D01*
X91835002Y-114925807D02*
X91644526Y-115255721D01*
X91644526Y-115255721D02*
X91638146Y-115362009D01*
X91638146Y-115362009D02*
X91655576Y-115427058D01*
X91655576Y-115427058D02*
X91714245Y-115515916D01*
X91714245Y-115515916D02*
X91837963Y-115587345D01*
X91837963Y-115587345D02*
X91944251Y-115593725D01*
X91944251Y-115593725D02*
X92009300Y-115576295D01*
X92009300Y-115576295D02*
X92098158Y-115517626D01*
X92098158Y-115517626D02*
X92288634Y-115187711D01*
X91409391Y-116329653D02*
X91986742Y-116662986D01*
X91198524Y-115932980D02*
X91936162Y-116083926D01*
X91936162Y-116083926D02*
X91626638Y-116620037D01*
X90763573Y-116781575D02*
X90715954Y-116864054D01*
X90715954Y-116864054D02*
X90709574Y-116970342D01*
X90709574Y-116970342D02*
X90727004Y-117035391D01*
X90727004Y-117035391D02*
X90785673Y-117124249D01*
X90785673Y-117124249D02*
X90926821Y-117260727D01*
X90926821Y-117260727D02*
X91133018Y-117379774D01*
X91133018Y-117379774D02*
X91321784Y-117433773D01*
X91321784Y-117433773D02*
X91428072Y-117440153D01*
X91428072Y-117440153D02*
X91493121Y-117422723D01*
X91493121Y-117422723D02*
X91581980Y-117364054D01*
X91581980Y-117364054D02*
X91629599Y-117281575D01*
X91629599Y-117281575D02*
X91635978Y-117175287D01*
X91635978Y-117175287D02*
X91618549Y-117110239D01*
X91618549Y-117110239D02*
X91559880Y-117021380D01*
X91559880Y-117021380D02*
X91418732Y-116884903D01*
X91418732Y-116884903D02*
X91212535Y-116765855D01*
X91212535Y-116765855D02*
X91023769Y-116711856D01*
X91023769Y-116711856D02*
X90917480Y-116705477D01*
X90917480Y-116705477D02*
X90852432Y-116722906D01*
X90852432Y-116722906D02*
X90763573Y-116781575D01*
D12*
%TO.C,SW1*%
X104190200Y-80733332D02*
X104142580Y-80590475D01*
X104142580Y-80590475D02*
X104142580Y-80352380D01*
X104142580Y-80352380D02*
X104190200Y-80257142D01*
X104190200Y-80257142D02*
X104237819Y-80209523D01*
X104237819Y-80209523D02*
X104333057Y-80161904D01*
X104333057Y-80161904D02*
X104428295Y-80161904D01*
X104428295Y-80161904D02*
X104523533Y-80209523D01*
X104523533Y-80209523D02*
X104571152Y-80257142D01*
X104571152Y-80257142D02*
X104618771Y-80352380D01*
X104618771Y-80352380D02*
X104666390Y-80542856D01*
X104666390Y-80542856D02*
X104714009Y-80638094D01*
X104714009Y-80638094D02*
X104761628Y-80685713D01*
X104761628Y-80685713D02*
X104856866Y-80733332D01*
X104856866Y-80733332D02*
X104952104Y-80733332D01*
X104952104Y-80733332D02*
X105047342Y-80685713D01*
X105047342Y-80685713D02*
X105094961Y-80638094D01*
X105094961Y-80638094D02*
X105142580Y-80542856D01*
X105142580Y-80542856D02*
X105142580Y-80304761D01*
X105142580Y-80304761D02*
X105094961Y-80161904D01*
X105142580Y-79828570D02*
X104142580Y-79590475D01*
X104142580Y-79590475D02*
X104856866Y-79399999D01*
X104856866Y-79399999D02*
X104142580Y-79209523D01*
X104142580Y-79209523D02*
X105142580Y-78971428D01*
X104142580Y-78066666D02*
X104142580Y-78638094D01*
X104142580Y-78352380D02*
X105142580Y-78352380D01*
X105142580Y-78352380D02*
X104999723Y-78447618D01*
X104999723Y-78447618D02*
X104904485Y-78542856D01*
X104904485Y-78542856D02*
X104856866Y-78638094D01*
D11*
%TO.C,R29*%
X111767848Y-111638519D02*
X112294618Y-111392793D01*
X112262719Y-111924233D02*
X112762719Y-111058208D01*
X112762719Y-111058208D02*
X112432805Y-110867732D01*
X112432805Y-110867732D02*
X112326517Y-110861352D01*
X112326517Y-110861352D02*
X112261468Y-110878782D01*
X112261468Y-110878782D02*
X112172610Y-110937451D01*
X112172610Y-110937451D02*
X112101181Y-111061169D01*
X112101181Y-111061169D02*
X112094801Y-111167457D01*
X112094801Y-111167457D02*
X112112231Y-111232506D01*
X112112231Y-111232506D02*
X112170900Y-111321364D01*
X112170900Y-111321364D02*
X112500815Y-111511840D01*
X111890314Y-110664496D02*
X111872884Y-110599447D01*
X111872884Y-110599447D02*
X111814215Y-110510589D01*
X111814215Y-110510589D02*
X111608019Y-110391541D01*
X111608019Y-110391541D02*
X111501731Y-110385161D01*
X111501731Y-110385161D02*
X111436682Y-110402591D01*
X111436682Y-110402591D02*
X111347823Y-110461260D01*
X111347823Y-110461260D02*
X111300204Y-110543739D01*
X111300204Y-110543739D02*
X111270015Y-110691266D01*
X111270015Y-110691266D02*
X111479172Y-111471852D01*
X111479172Y-111471852D02*
X110943062Y-111162328D01*
X110530668Y-110924233D02*
X110365711Y-110828995D01*
X110365711Y-110828995D02*
X110307042Y-110740137D01*
X110307042Y-110740137D02*
X110289612Y-110675088D01*
X110289612Y-110675088D02*
X110278562Y-110503751D01*
X110278562Y-110503751D02*
X110332561Y-110314984D01*
X110332561Y-110314984D02*
X110523037Y-109985070D01*
X110523037Y-109985070D02*
X110611896Y-109926401D01*
X110611896Y-109926401D02*
X110676944Y-109908971D01*
X110676944Y-109908971D02*
X110783233Y-109915351D01*
X110783233Y-109915351D02*
X110948190Y-110010589D01*
X110948190Y-110010589D02*
X111006859Y-110099447D01*
X111006859Y-110099447D02*
X111024289Y-110164496D01*
X111024289Y-110164496D02*
X111017909Y-110270784D01*
X111017909Y-110270784D02*
X110898861Y-110476981D01*
X110898861Y-110476981D02*
X110810003Y-110535650D01*
X110810003Y-110535650D02*
X110744954Y-110553079D01*
X110744954Y-110553079D02*
X110638666Y-110546700D01*
X110638666Y-110546700D02*
X110473709Y-110451462D01*
X110473709Y-110451462D02*
X110415040Y-110362603D01*
X110415040Y-110362603D02*
X110397610Y-110297554D01*
X110397610Y-110297554D02*
X110403990Y-110191266D01*
%TO.C,C17*%
X107650306Y-105058829D02*
X107650306Y-105126173D01*
X107650306Y-105126173D02*
X107717650Y-105260860D01*
X107717650Y-105260860D02*
X107784993Y-105328203D01*
X107784993Y-105328203D02*
X107919680Y-105395547D01*
X107919680Y-105395547D02*
X108054367Y-105395547D01*
X108054367Y-105395547D02*
X108155382Y-105361875D01*
X108155382Y-105361875D02*
X108323741Y-105260860D01*
X108323741Y-105260860D02*
X108424756Y-105159845D01*
X108424756Y-105159845D02*
X108525772Y-104991486D01*
X108525772Y-104991486D02*
X108559443Y-104890471D01*
X108559443Y-104890471D02*
X108559443Y-104755784D01*
X108559443Y-104755784D02*
X108492100Y-104621097D01*
X108492100Y-104621097D02*
X108424756Y-104553753D01*
X108424756Y-104553753D02*
X108290069Y-104486410D01*
X108290069Y-104486410D02*
X108222726Y-104486410D01*
X106909528Y-104452738D02*
X107313589Y-104856799D01*
X107111558Y-104654768D02*
X107818665Y-103947662D01*
X107818665Y-103947662D02*
X107784993Y-104116020D01*
X107784993Y-104116020D02*
X107784993Y-104250707D01*
X107784993Y-104250707D02*
X107818665Y-104351723D01*
X107380932Y-103509929D02*
X106909527Y-103038524D01*
X106909527Y-103038524D02*
X106505466Y-104048677D01*
%TO.C,J1*%
X83854819Y-93666666D02*
X84569104Y-93666666D01*
X84569104Y-93666666D02*
X84711961Y-93619047D01*
X84711961Y-93619047D02*
X84807200Y-93523809D01*
X84807200Y-93523809D02*
X84854819Y-93380952D01*
X84854819Y-93380952D02*
X84854819Y-93285714D01*
X84854819Y-94666666D02*
X84854819Y-94095238D01*
X84854819Y-94380952D02*
X83854819Y-94380952D01*
X83854819Y-94380952D02*
X83997676Y-94285714D01*
X83997676Y-94285714D02*
X84092914Y-94190476D01*
X84092914Y-94190476D02*
X84140533Y-94095238D01*
D12*
X82327580Y-101067544D02*
X83327580Y-101067544D01*
X82375200Y-101067544D02*
X82327580Y-101162782D01*
X82327580Y-101162782D02*
X82327580Y-101353258D01*
X82327580Y-101353258D02*
X82375200Y-101448496D01*
X82375200Y-101448496D02*
X82422819Y-101496115D01*
X82422819Y-101496115D02*
X82518057Y-101543734D01*
X82518057Y-101543734D02*
X82803771Y-101543734D01*
X82803771Y-101543734D02*
X82899009Y-101496115D01*
X82899009Y-101496115D02*
X82946628Y-101448496D01*
X82946628Y-101448496D02*
X82994247Y-101353258D01*
X82994247Y-101353258D02*
X82994247Y-101162782D01*
X82994247Y-101162782D02*
X82946628Y-101067544D01*
X82327580Y-100591353D02*
X82994247Y-100591353D01*
X82803771Y-100591353D02*
X82899009Y-100543734D01*
X82899009Y-100543734D02*
X82946628Y-100496115D01*
X82946628Y-100496115D02*
X82994247Y-100400877D01*
X82994247Y-100400877D02*
X82994247Y-100305639D01*
X82327580Y-99972305D02*
X82994247Y-99972305D01*
X83327580Y-99972305D02*
X83279961Y-100019924D01*
X83279961Y-100019924D02*
X83232342Y-99972305D01*
X83232342Y-99972305D02*
X83279961Y-99924686D01*
X83279961Y-99924686D02*
X83327580Y-99972305D01*
X83327580Y-99972305D02*
X83232342Y-99972305D01*
X82327580Y-99353258D02*
X82375200Y-99448496D01*
X82375200Y-99448496D02*
X82470438Y-99496115D01*
X82470438Y-99496115D02*
X83327580Y-99496115D01*
X82327580Y-98829448D02*
X82375200Y-98924686D01*
X82375200Y-98924686D02*
X82470438Y-98972305D01*
X82470438Y-98972305D02*
X83327580Y-98972305D01*
D11*
%TO.C,R17*%
X108737557Y-84032151D02*
X108491831Y-83505381D01*
X109023271Y-83537280D02*
X108157246Y-83037280D01*
X108157246Y-83037280D02*
X107966770Y-83367194D01*
X107966770Y-83367194D02*
X107960390Y-83473482D01*
X107960390Y-83473482D02*
X107977820Y-83538531D01*
X107977820Y-83538531D02*
X108036489Y-83627389D01*
X108036489Y-83627389D02*
X108160207Y-83698818D01*
X108160207Y-83698818D02*
X108266495Y-83705198D01*
X108266495Y-83705198D02*
X108331544Y-83687768D01*
X108331544Y-83687768D02*
X108420402Y-83629099D01*
X108420402Y-83629099D02*
X108610878Y-83299184D01*
X108261366Y-84856937D02*
X108547081Y-84362066D01*
X108404224Y-84609502D02*
X107538198Y-84109502D01*
X107538198Y-84109502D02*
X107709535Y-84098452D01*
X107709535Y-84098452D02*
X107839633Y-84063592D01*
X107839633Y-84063592D02*
X107928491Y-84004923D01*
X107228674Y-84645613D02*
X106895341Y-85222963D01*
X106895341Y-85222963D02*
X107975652Y-85351809D01*
%TO.C,C10*%
X106442857Y-96259580D02*
X106490476Y-96307200D01*
X106490476Y-96307200D02*
X106633333Y-96354819D01*
X106633333Y-96354819D02*
X106728571Y-96354819D01*
X106728571Y-96354819D02*
X106871428Y-96307200D01*
X106871428Y-96307200D02*
X106966666Y-96211961D01*
X106966666Y-96211961D02*
X107014285Y-96116723D01*
X107014285Y-96116723D02*
X107061904Y-95926247D01*
X107061904Y-95926247D02*
X107061904Y-95783390D01*
X107061904Y-95783390D02*
X107014285Y-95592914D01*
X107014285Y-95592914D02*
X106966666Y-95497676D01*
X106966666Y-95497676D02*
X106871428Y-95402438D01*
X106871428Y-95402438D02*
X106728571Y-95354819D01*
X106728571Y-95354819D02*
X106633333Y-95354819D01*
X106633333Y-95354819D02*
X106490476Y-95402438D01*
X106490476Y-95402438D02*
X106442857Y-95450057D01*
X105490476Y-96354819D02*
X106061904Y-96354819D01*
X105776190Y-96354819D02*
X105776190Y-95354819D01*
X105776190Y-95354819D02*
X105871428Y-95497676D01*
X105871428Y-95497676D02*
X105966666Y-95592914D01*
X105966666Y-95592914D02*
X106061904Y-95640533D01*
X104871428Y-95354819D02*
X104776190Y-95354819D01*
X104776190Y-95354819D02*
X104680952Y-95402438D01*
X104680952Y-95402438D02*
X104633333Y-95450057D01*
X104633333Y-95450057D02*
X104585714Y-95545295D01*
X104585714Y-95545295D02*
X104538095Y-95735771D01*
X104538095Y-95735771D02*
X104538095Y-95973866D01*
X104538095Y-95973866D02*
X104585714Y-96164342D01*
X104585714Y-96164342D02*
X104633333Y-96259580D01*
X104633333Y-96259580D02*
X104680952Y-96307200D01*
X104680952Y-96307200D02*
X104776190Y-96354819D01*
X104776190Y-96354819D02*
X104871428Y-96354819D01*
X104871428Y-96354819D02*
X104966666Y-96307200D01*
X104966666Y-96307200D02*
X105014285Y-96259580D01*
X105014285Y-96259580D02*
X105061904Y-96164342D01*
X105061904Y-96164342D02*
X105109523Y-95973866D01*
X105109523Y-95973866D02*
X105109523Y-95735771D01*
X105109523Y-95735771D02*
X105061904Y-95545295D01*
X105061904Y-95545295D02*
X105014285Y-95450057D01*
X105014285Y-95450057D02*
X104966666Y-95402438D01*
X104966666Y-95402438D02*
X104871428Y-95354819D01*
%TO.C,R49*%
X81242857Y-106654819D02*
X81576190Y-106178628D01*
X81814285Y-106654819D02*
X81814285Y-105654819D01*
X81814285Y-105654819D02*
X81433333Y-105654819D01*
X81433333Y-105654819D02*
X81338095Y-105702438D01*
X81338095Y-105702438D02*
X81290476Y-105750057D01*
X81290476Y-105750057D02*
X81242857Y-105845295D01*
X81242857Y-105845295D02*
X81242857Y-105988152D01*
X81242857Y-105988152D02*
X81290476Y-106083390D01*
X81290476Y-106083390D02*
X81338095Y-106131009D01*
X81338095Y-106131009D02*
X81433333Y-106178628D01*
X81433333Y-106178628D02*
X81814285Y-106178628D01*
X80385714Y-105988152D02*
X80385714Y-106654819D01*
X80623809Y-105607200D02*
X80861904Y-106321485D01*
X80861904Y-106321485D02*
X80242857Y-106321485D01*
X79814285Y-106654819D02*
X79623809Y-106654819D01*
X79623809Y-106654819D02*
X79528571Y-106607200D01*
X79528571Y-106607200D02*
X79480952Y-106559580D01*
X79480952Y-106559580D02*
X79385714Y-106416723D01*
X79385714Y-106416723D02*
X79338095Y-106226247D01*
X79338095Y-106226247D02*
X79338095Y-105845295D01*
X79338095Y-105845295D02*
X79385714Y-105750057D01*
X79385714Y-105750057D02*
X79433333Y-105702438D01*
X79433333Y-105702438D02*
X79528571Y-105654819D01*
X79528571Y-105654819D02*
X79719047Y-105654819D01*
X79719047Y-105654819D02*
X79814285Y-105702438D01*
X79814285Y-105702438D02*
X79861904Y-105750057D01*
X79861904Y-105750057D02*
X79909523Y-105845295D01*
X79909523Y-105845295D02*
X79909523Y-106083390D01*
X79909523Y-106083390D02*
X79861904Y-106178628D01*
X79861904Y-106178628D02*
X79814285Y-106226247D01*
X79814285Y-106226247D02*
X79719047Y-106273866D01*
X79719047Y-106273866D02*
X79528571Y-106273866D01*
X79528571Y-106273866D02*
X79433333Y-106226247D01*
X79433333Y-106226247D02*
X79385714Y-106178628D01*
X79385714Y-106178628D02*
X79338095Y-106083390D01*
%TO.C,C14*%
X91459580Y-111357142D02*
X91507200Y-111309523D01*
X91507200Y-111309523D02*
X91554819Y-111166666D01*
X91554819Y-111166666D02*
X91554819Y-111071428D01*
X91554819Y-111071428D02*
X91507200Y-110928571D01*
X91507200Y-110928571D02*
X91411961Y-110833333D01*
X91411961Y-110833333D02*
X91316723Y-110785714D01*
X91316723Y-110785714D02*
X91126247Y-110738095D01*
X91126247Y-110738095D02*
X90983390Y-110738095D01*
X90983390Y-110738095D02*
X90792914Y-110785714D01*
X90792914Y-110785714D02*
X90697676Y-110833333D01*
X90697676Y-110833333D02*
X90602438Y-110928571D01*
X90602438Y-110928571D02*
X90554819Y-111071428D01*
X90554819Y-111071428D02*
X90554819Y-111166666D01*
X90554819Y-111166666D02*
X90602438Y-111309523D01*
X90602438Y-111309523D02*
X90650057Y-111357142D01*
X91554819Y-112309523D02*
X91554819Y-111738095D01*
X91554819Y-112023809D02*
X90554819Y-112023809D01*
X90554819Y-112023809D02*
X90697676Y-111928571D01*
X90697676Y-111928571D02*
X90792914Y-111833333D01*
X90792914Y-111833333D02*
X90840533Y-111738095D01*
X90888152Y-113166666D02*
X91554819Y-113166666D01*
X90507200Y-112928571D02*
X91221485Y-112690476D01*
X91221485Y-112690476D02*
X91221485Y-113309523D01*
%TO.C,R32*%
X112317736Y-117874403D02*
X112896796Y-117924983D01*
X112603451Y-118369274D02*
X113469476Y-117869274D01*
X113469476Y-117869274D02*
X113279000Y-117539360D01*
X113279000Y-117539360D02*
X113190141Y-117480691D01*
X113190141Y-117480691D02*
X113125093Y-117463261D01*
X113125093Y-117463261D02*
X113018804Y-117469641D01*
X113018804Y-117469641D02*
X112895087Y-117541069D01*
X112895087Y-117541069D02*
X112836417Y-117629928D01*
X112836417Y-117629928D02*
X112818988Y-117694977D01*
X112818988Y-117694977D02*
X112825367Y-117801265D01*
X112825367Y-117801265D02*
X113015844Y-118131179D01*
X113017095Y-117085728D02*
X112707571Y-116549617D01*
X112707571Y-116549617D02*
X112544323Y-117028768D01*
X112544323Y-117028768D02*
X112472895Y-116905050D01*
X112472895Y-116905050D02*
X112384036Y-116846381D01*
X112384036Y-116846381D02*
X112318988Y-116828951D01*
X112318988Y-116828951D02*
X112212700Y-116835331D01*
X112212700Y-116835331D02*
X112006503Y-116954378D01*
X112006503Y-116954378D02*
X111947834Y-117043237D01*
X111947834Y-117043237D02*
X111930404Y-117108286D01*
X111930404Y-117108286D02*
X111936784Y-117214574D01*
X111936784Y-117214574D02*
X112079641Y-117462010D01*
X112079641Y-117462010D02*
X112168499Y-117520679D01*
X112168499Y-117520679D02*
X112233548Y-117538108D01*
X112434616Y-116267321D02*
X112452046Y-116202272D01*
X112452046Y-116202272D02*
X112445666Y-116095984D01*
X112445666Y-116095984D02*
X112326619Y-115889788D01*
X112326619Y-115889788D02*
X112237760Y-115831119D01*
X112237760Y-115831119D02*
X112172712Y-115813689D01*
X112172712Y-115813689D02*
X112066423Y-115820069D01*
X112066423Y-115820069D02*
X111983945Y-115867688D01*
X111983945Y-115867688D02*
X111884036Y-115980355D01*
X111884036Y-115980355D02*
X111674879Y-116760941D01*
X111674879Y-116760941D02*
X111365355Y-116224830D01*
%TO.C,C12*%
X90242857Y-99959580D02*
X90290476Y-100007200D01*
X90290476Y-100007200D02*
X90433333Y-100054819D01*
X90433333Y-100054819D02*
X90528571Y-100054819D01*
X90528571Y-100054819D02*
X90671428Y-100007200D01*
X90671428Y-100007200D02*
X90766666Y-99911961D01*
X90766666Y-99911961D02*
X90814285Y-99816723D01*
X90814285Y-99816723D02*
X90861904Y-99626247D01*
X90861904Y-99626247D02*
X90861904Y-99483390D01*
X90861904Y-99483390D02*
X90814285Y-99292914D01*
X90814285Y-99292914D02*
X90766666Y-99197676D01*
X90766666Y-99197676D02*
X90671428Y-99102438D01*
X90671428Y-99102438D02*
X90528571Y-99054819D01*
X90528571Y-99054819D02*
X90433333Y-99054819D01*
X90433333Y-99054819D02*
X90290476Y-99102438D01*
X90290476Y-99102438D02*
X90242857Y-99150057D01*
X89290476Y-100054819D02*
X89861904Y-100054819D01*
X89576190Y-100054819D02*
X89576190Y-99054819D01*
X89576190Y-99054819D02*
X89671428Y-99197676D01*
X89671428Y-99197676D02*
X89766666Y-99292914D01*
X89766666Y-99292914D02*
X89861904Y-99340533D01*
X88909523Y-99150057D02*
X88861904Y-99102438D01*
X88861904Y-99102438D02*
X88766666Y-99054819D01*
X88766666Y-99054819D02*
X88528571Y-99054819D01*
X88528571Y-99054819D02*
X88433333Y-99102438D01*
X88433333Y-99102438D02*
X88385714Y-99150057D01*
X88385714Y-99150057D02*
X88338095Y-99245295D01*
X88338095Y-99245295D02*
X88338095Y-99340533D01*
X88338095Y-99340533D02*
X88385714Y-99483390D01*
X88385714Y-99483390D02*
X88957142Y-100054819D01*
X88957142Y-100054819D02*
X88338095Y-100054819D01*
%TO.C,R25*%
X115642857Y-104304818D02*
X115976190Y-103828627D01*
X116214285Y-104304818D02*
X116214285Y-103304818D01*
X116214285Y-103304818D02*
X115833333Y-103304818D01*
X115833333Y-103304818D02*
X115738095Y-103352437D01*
X115738095Y-103352437D02*
X115690476Y-103400056D01*
X115690476Y-103400056D02*
X115642857Y-103495294D01*
X115642857Y-103495294D02*
X115642857Y-103638151D01*
X115642857Y-103638151D02*
X115690476Y-103733389D01*
X115690476Y-103733389D02*
X115738095Y-103781008D01*
X115738095Y-103781008D02*
X115833333Y-103828627D01*
X115833333Y-103828627D02*
X116214285Y-103828627D01*
X115261904Y-103400056D02*
X115214285Y-103352437D01*
X115214285Y-103352437D02*
X115119047Y-103304818D01*
X115119047Y-103304818D02*
X114880952Y-103304818D01*
X114880952Y-103304818D02*
X114785714Y-103352437D01*
X114785714Y-103352437D02*
X114738095Y-103400056D01*
X114738095Y-103400056D02*
X114690476Y-103495294D01*
X114690476Y-103495294D02*
X114690476Y-103590532D01*
X114690476Y-103590532D02*
X114738095Y-103733389D01*
X114738095Y-103733389D02*
X115309523Y-104304818D01*
X115309523Y-104304818D02*
X114690476Y-104304818D01*
X113785714Y-103304818D02*
X114261904Y-103304818D01*
X114261904Y-103304818D02*
X114309523Y-103781008D01*
X114309523Y-103781008D02*
X114261904Y-103733389D01*
X114261904Y-103733389D02*
X114166666Y-103685770D01*
X114166666Y-103685770D02*
X113928571Y-103685770D01*
X113928571Y-103685770D02*
X113833333Y-103733389D01*
X113833333Y-103733389D02*
X113785714Y-103781008D01*
X113785714Y-103781008D02*
X113738095Y-103876246D01*
X113738095Y-103876246D02*
X113738095Y-104114341D01*
X113738095Y-104114341D02*
X113785714Y-104209579D01*
X113785714Y-104209579D02*
X113833333Y-104257199D01*
X113833333Y-104257199D02*
X113928571Y-104304818D01*
X113928571Y-104304818D02*
X114166666Y-104304818D01*
X114166666Y-104304818D02*
X114261904Y-104257199D01*
X114261904Y-104257199D02*
X114309523Y-104209579D01*
%TO.C,R41*%
X91065313Y-115220678D02*
X90819587Y-114693908D01*
X91351027Y-114725807D02*
X90485002Y-114225807D01*
X90485002Y-114225807D02*
X90294526Y-114555721D01*
X90294526Y-114555721D02*
X90288146Y-114662009D01*
X90288146Y-114662009D02*
X90305576Y-114727058D01*
X90305576Y-114727058D02*
X90364245Y-114815916D01*
X90364245Y-114815916D02*
X90487963Y-114887345D01*
X90487963Y-114887345D02*
X90594251Y-114893725D01*
X90594251Y-114893725D02*
X90659300Y-114876295D01*
X90659300Y-114876295D02*
X90748158Y-114817626D01*
X90748158Y-114817626D02*
X90938634Y-114487711D01*
X90059391Y-115629653D02*
X90636742Y-115962986D01*
X89848524Y-115232980D02*
X90586162Y-115383926D01*
X90586162Y-115383926D02*
X90276638Y-115920037D01*
X90112932Y-116870251D02*
X90398646Y-116375379D01*
X90255789Y-116622815D02*
X89389764Y-116122815D01*
X89389764Y-116122815D02*
X89561101Y-116111765D01*
X89561101Y-116111765D02*
X89691198Y-116076905D01*
X89691198Y-116076905D02*
X89780057Y-116018236D01*
D13*
%TO.C,R44*%
X89864285Y-110813335D02*
X90130952Y-110432382D01*
X90321428Y-110813335D02*
X90321428Y-110013335D01*
X90321428Y-110013335D02*
X90016666Y-110013335D01*
X90016666Y-110013335D02*
X89940476Y-110051430D01*
X89940476Y-110051430D02*
X89902381Y-110089525D01*
X89902381Y-110089525D02*
X89864285Y-110165716D01*
X89864285Y-110165716D02*
X89864285Y-110280001D01*
X89864285Y-110280001D02*
X89902381Y-110356192D01*
X89902381Y-110356192D02*
X89940476Y-110394287D01*
X89940476Y-110394287D02*
X90016666Y-110432382D01*
X90016666Y-110432382D02*
X90321428Y-110432382D01*
X89178571Y-110280001D02*
X89178571Y-110813335D01*
X89369047Y-109975240D02*
X89559524Y-110546668D01*
X89559524Y-110546668D02*
X89064285Y-110546668D01*
X88416666Y-110280001D02*
X88416666Y-110813335D01*
X88607142Y-109975240D02*
X88797619Y-110546668D01*
X88797619Y-110546668D02*
X88302380Y-110546668D01*
D11*
%TO.C,R5*%
X106154819Y-91633333D02*
X105678628Y-91300000D01*
X106154819Y-91061905D02*
X105154819Y-91061905D01*
X105154819Y-91061905D02*
X105154819Y-91442857D01*
X105154819Y-91442857D02*
X105202438Y-91538095D01*
X105202438Y-91538095D02*
X105250057Y-91585714D01*
X105250057Y-91585714D02*
X105345295Y-91633333D01*
X105345295Y-91633333D02*
X105488152Y-91633333D01*
X105488152Y-91633333D02*
X105583390Y-91585714D01*
X105583390Y-91585714D02*
X105631009Y-91538095D01*
X105631009Y-91538095D02*
X105678628Y-91442857D01*
X105678628Y-91442857D02*
X105678628Y-91061905D01*
X105154819Y-92538095D02*
X105154819Y-92061905D01*
X105154819Y-92061905D02*
X105631009Y-92014286D01*
X105631009Y-92014286D02*
X105583390Y-92061905D01*
X105583390Y-92061905D02*
X105535771Y-92157143D01*
X105535771Y-92157143D02*
X105535771Y-92395238D01*
X105535771Y-92395238D02*
X105583390Y-92490476D01*
X105583390Y-92490476D02*
X105631009Y-92538095D01*
X105631009Y-92538095D02*
X105726247Y-92585714D01*
X105726247Y-92585714D02*
X105964342Y-92585714D01*
X105964342Y-92585714D02*
X106059580Y-92538095D01*
X106059580Y-92538095D02*
X106107200Y-92490476D01*
X106107200Y-92490476D02*
X106154819Y-92395238D01*
X106154819Y-92395238D02*
X106154819Y-92157143D01*
X106154819Y-92157143D02*
X106107200Y-92061905D01*
X106107200Y-92061905D02*
X106059580Y-92014286D01*
D13*
%TO.C,R37*%
X93063335Y-116585714D02*
X92682382Y-116319047D01*
X93063335Y-116128571D02*
X92263335Y-116128571D01*
X92263335Y-116128571D02*
X92263335Y-116433333D01*
X92263335Y-116433333D02*
X92301430Y-116509523D01*
X92301430Y-116509523D02*
X92339525Y-116547618D01*
X92339525Y-116547618D02*
X92415716Y-116585714D01*
X92415716Y-116585714D02*
X92530001Y-116585714D01*
X92530001Y-116585714D02*
X92606192Y-116547618D01*
X92606192Y-116547618D02*
X92644287Y-116509523D01*
X92644287Y-116509523D02*
X92682382Y-116433333D01*
X92682382Y-116433333D02*
X92682382Y-116128571D01*
X92263335Y-116852380D02*
X92263335Y-117347618D01*
X92263335Y-117347618D02*
X92568097Y-117080952D01*
X92568097Y-117080952D02*
X92568097Y-117195237D01*
X92568097Y-117195237D02*
X92606192Y-117271428D01*
X92606192Y-117271428D02*
X92644287Y-117309523D01*
X92644287Y-117309523D02*
X92720478Y-117347618D01*
X92720478Y-117347618D02*
X92910954Y-117347618D01*
X92910954Y-117347618D02*
X92987144Y-117309523D01*
X92987144Y-117309523D02*
X93025240Y-117271428D01*
X93025240Y-117271428D02*
X93063335Y-117195237D01*
X93063335Y-117195237D02*
X93063335Y-116966666D01*
X93063335Y-116966666D02*
X93025240Y-116890475D01*
X93025240Y-116890475D02*
X92987144Y-116852380D01*
X92263335Y-117614285D02*
X92263335Y-118147619D01*
X92263335Y-118147619D02*
X93063335Y-117804761D01*
D11*
%TO.C,R60*%
X101154819Y-85332142D02*
X100678628Y-84998809D01*
X101154819Y-84760714D02*
X100154819Y-84760714D01*
X100154819Y-84760714D02*
X100154819Y-85141666D01*
X100154819Y-85141666D02*
X100202438Y-85236904D01*
X100202438Y-85236904D02*
X100250057Y-85284523D01*
X100250057Y-85284523D02*
X100345295Y-85332142D01*
X100345295Y-85332142D02*
X100488152Y-85332142D01*
X100488152Y-85332142D02*
X100583390Y-85284523D01*
X100583390Y-85284523D02*
X100631009Y-85236904D01*
X100631009Y-85236904D02*
X100678628Y-85141666D01*
X100678628Y-85141666D02*
X100678628Y-84760714D01*
X100154819Y-86189285D02*
X100154819Y-85998809D01*
X100154819Y-85998809D02*
X100202438Y-85903571D01*
X100202438Y-85903571D02*
X100250057Y-85855952D01*
X100250057Y-85855952D02*
X100392914Y-85760714D01*
X100392914Y-85760714D02*
X100583390Y-85713095D01*
X100583390Y-85713095D02*
X100964342Y-85713095D01*
X100964342Y-85713095D02*
X101059580Y-85760714D01*
X101059580Y-85760714D02*
X101107200Y-85808333D01*
X101107200Y-85808333D02*
X101154819Y-85903571D01*
X101154819Y-85903571D02*
X101154819Y-86094047D01*
X101154819Y-86094047D02*
X101107200Y-86189285D01*
X101107200Y-86189285D02*
X101059580Y-86236904D01*
X101059580Y-86236904D02*
X100964342Y-86284523D01*
X100964342Y-86284523D02*
X100726247Y-86284523D01*
X100726247Y-86284523D02*
X100631009Y-86236904D01*
X100631009Y-86236904D02*
X100583390Y-86189285D01*
X100583390Y-86189285D02*
X100535771Y-86094047D01*
X100535771Y-86094047D02*
X100535771Y-85903571D01*
X100535771Y-85903571D02*
X100583390Y-85808333D01*
X100583390Y-85808333D02*
X100631009Y-85760714D01*
X100631009Y-85760714D02*
X100726247Y-85713095D01*
X100154819Y-86903571D02*
X100154819Y-86998809D01*
X100154819Y-86998809D02*
X100202438Y-87094047D01*
X100202438Y-87094047D02*
X100250057Y-87141666D01*
X100250057Y-87141666D02*
X100345295Y-87189285D01*
X100345295Y-87189285D02*
X100535771Y-87236904D01*
X100535771Y-87236904D02*
X100773866Y-87236904D01*
X100773866Y-87236904D02*
X100964342Y-87189285D01*
X100964342Y-87189285D02*
X101059580Y-87141666D01*
X101059580Y-87141666D02*
X101107200Y-87094047D01*
X101107200Y-87094047D02*
X101154819Y-86998809D01*
X101154819Y-86998809D02*
X101154819Y-86903571D01*
X101154819Y-86903571D02*
X101107200Y-86808333D01*
X101107200Y-86808333D02*
X101059580Y-86760714D01*
X101059580Y-86760714D02*
X100964342Y-86713095D01*
X100964342Y-86713095D02*
X100773866Y-86665476D01*
X100773866Y-86665476D02*
X100535771Y-86665476D01*
X100535771Y-86665476D02*
X100345295Y-86713095D01*
X100345295Y-86713095D02*
X100250057Y-86760714D01*
X100250057Y-86760714D02*
X100202438Y-86808333D01*
X100202438Y-86808333D02*
X100154819Y-86903571D01*
%TO.C,C9*%
X96659580Y-100683333D02*
X96707200Y-100635714D01*
X96707200Y-100635714D02*
X96754819Y-100492857D01*
X96754819Y-100492857D02*
X96754819Y-100397619D01*
X96754819Y-100397619D02*
X96707200Y-100254762D01*
X96707200Y-100254762D02*
X96611961Y-100159524D01*
X96611961Y-100159524D02*
X96516723Y-100111905D01*
X96516723Y-100111905D02*
X96326247Y-100064286D01*
X96326247Y-100064286D02*
X96183390Y-100064286D01*
X96183390Y-100064286D02*
X95992914Y-100111905D01*
X95992914Y-100111905D02*
X95897676Y-100159524D01*
X95897676Y-100159524D02*
X95802438Y-100254762D01*
X95802438Y-100254762D02*
X95754819Y-100397619D01*
X95754819Y-100397619D02*
X95754819Y-100492857D01*
X95754819Y-100492857D02*
X95802438Y-100635714D01*
X95802438Y-100635714D02*
X95850057Y-100683333D01*
X96754819Y-101159524D02*
X96754819Y-101350000D01*
X96754819Y-101350000D02*
X96707200Y-101445238D01*
X96707200Y-101445238D02*
X96659580Y-101492857D01*
X96659580Y-101492857D02*
X96516723Y-101588095D01*
X96516723Y-101588095D02*
X96326247Y-101635714D01*
X96326247Y-101635714D02*
X95945295Y-101635714D01*
X95945295Y-101635714D02*
X95850057Y-101588095D01*
X95850057Y-101588095D02*
X95802438Y-101540476D01*
X95802438Y-101540476D02*
X95754819Y-101445238D01*
X95754819Y-101445238D02*
X95754819Y-101254762D01*
X95754819Y-101254762D02*
X95802438Y-101159524D01*
X95802438Y-101159524D02*
X95850057Y-101111905D01*
X95850057Y-101111905D02*
X95945295Y-101064286D01*
X95945295Y-101064286D02*
X96183390Y-101064286D01*
X96183390Y-101064286D02*
X96278628Y-101111905D01*
X96278628Y-101111905D02*
X96326247Y-101159524D01*
X96326247Y-101159524D02*
X96373866Y-101254762D01*
X96373866Y-101254762D02*
X96373866Y-101445238D01*
X96373866Y-101445238D02*
X96326247Y-101540476D01*
X96326247Y-101540476D02*
X96278628Y-101588095D01*
X96278628Y-101588095D02*
X96183390Y-101635714D01*
%TO.C,C15*%
X111189580Y-112157142D02*
X111237200Y-112109523D01*
X111237200Y-112109523D02*
X111284819Y-111966666D01*
X111284819Y-111966666D02*
X111284819Y-111871428D01*
X111284819Y-111871428D02*
X111237200Y-111728571D01*
X111237200Y-111728571D02*
X111141961Y-111633333D01*
X111141961Y-111633333D02*
X111046723Y-111585714D01*
X111046723Y-111585714D02*
X110856247Y-111538095D01*
X110856247Y-111538095D02*
X110713390Y-111538095D01*
X110713390Y-111538095D02*
X110522914Y-111585714D01*
X110522914Y-111585714D02*
X110427676Y-111633333D01*
X110427676Y-111633333D02*
X110332438Y-111728571D01*
X110332438Y-111728571D02*
X110284819Y-111871428D01*
X110284819Y-111871428D02*
X110284819Y-111966666D01*
X110284819Y-111966666D02*
X110332438Y-112109523D01*
X110332438Y-112109523D02*
X110380057Y-112157142D01*
X111284819Y-113109523D02*
X111284819Y-112538095D01*
X111284819Y-112823809D02*
X110284819Y-112823809D01*
X110284819Y-112823809D02*
X110427676Y-112728571D01*
X110427676Y-112728571D02*
X110522914Y-112633333D01*
X110522914Y-112633333D02*
X110570533Y-112538095D01*
X110284819Y-114014285D02*
X110284819Y-113538095D01*
X110284819Y-113538095D02*
X110761009Y-113490476D01*
X110761009Y-113490476D02*
X110713390Y-113538095D01*
X110713390Y-113538095D02*
X110665771Y-113633333D01*
X110665771Y-113633333D02*
X110665771Y-113871428D01*
X110665771Y-113871428D02*
X110713390Y-113966666D01*
X110713390Y-113966666D02*
X110761009Y-114014285D01*
X110761009Y-114014285D02*
X110856247Y-114061904D01*
X110856247Y-114061904D02*
X111094342Y-114061904D01*
X111094342Y-114061904D02*
X111189580Y-114014285D01*
X111189580Y-114014285D02*
X111237200Y-113966666D01*
X111237200Y-113966666D02*
X111284819Y-113871428D01*
X111284819Y-113871428D02*
X111284819Y-113633333D01*
X111284819Y-113633333D02*
X111237200Y-113538095D01*
X111237200Y-113538095D02*
X111189580Y-113490476D01*
%TO.C,C13*%
X92842857Y-95389580D02*
X92890476Y-95437200D01*
X92890476Y-95437200D02*
X93033333Y-95484819D01*
X93033333Y-95484819D02*
X93128571Y-95484819D01*
X93128571Y-95484819D02*
X93271428Y-95437200D01*
X93271428Y-95437200D02*
X93366666Y-95341961D01*
X93366666Y-95341961D02*
X93414285Y-95246723D01*
X93414285Y-95246723D02*
X93461904Y-95056247D01*
X93461904Y-95056247D02*
X93461904Y-94913390D01*
X93461904Y-94913390D02*
X93414285Y-94722914D01*
X93414285Y-94722914D02*
X93366666Y-94627676D01*
X93366666Y-94627676D02*
X93271428Y-94532438D01*
X93271428Y-94532438D02*
X93128571Y-94484819D01*
X93128571Y-94484819D02*
X93033333Y-94484819D01*
X93033333Y-94484819D02*
X92890476Y-94532438D01*
X92890476Y-94532438D02*
X92842857Y-94580057D01*
X91890476Y-95484819D02*
X92461904Y-95484819D01*
X92176190Y-95484819D02*
X92176190Y-94484819D01*
X92176190Y-94484819D02*
X92271428Y-94627676D01*
X92271428Y-94627676D02*
X92366666Y-94722914D01*
X92366666Y-94722914D02*
X92461904Y-94770533D01*
X91557142Y-94484819D02*
X90938095Y-94484819D01*
X90938095Y-94484819D02*
X91271428Y-94865771D01*
X91271428Y-94865771D02*
X91128571Y-94865771D01*
X91128571Y-94865771D02*
X91033333Y-94913390D01*
X91033333Y-94913390D02*
X90985714Y-94961009D01*
X90985714Y-94961009D02*
X90938095Y-95056247D01*
X90938095Y-95056247D02*
X90938095Y-95294342D01*
X90938095Y-95294342D02*
X90985714Y-95389580D01*
X90985714Y-95389580D02*
X91033333Y-95437200D01*
X91033333Y-95437200D02*
X91128571Y-95484819D01*
X91128571Y-95484819D02*
X91414285Y-95484819D01*
X91414285Y-95484819D02*
X91509523Y-95437200D01*
X91509523Y-95437200D02*
X91557142Y-95389580D01*
%TO.C,R33*%
X108227544Y-120484140D02*
X108806604Y-120534720D01*
X108513259Y-120979011D02*
X109379284Y-120479011D01*
X109379284Y-120479011D02*
X109188808Y-120149097D01*
X109188808Y-120149097D02*
X109099949Y-120090428D01*
X109099949Y-120090428D02*
X109034901Y-120072998D01*
X109034901Y-120072998D02*
X108928612Y-120079378D01*
X108928612Y-120079378D02*
X108804895Y-120150806D01*
X108804895Y-120150806D02*
X108746225Y-120239665D01*
X108746225Y-120239665D02*
X108728796Y-120304714D01*
X108728796Y-120304714D02*
X108735175Y-120411002D01*
X108735175Y-120411002D02*
X108925652Y-120740916D01*
X108926903Y-119695465D02*
X108617379Y-119159354D01*
X108617379Y-119159354D02*
X108454131Y-119638505D01*
X108454131Y-119638505D02*
X108382703Y-119514787D01*
X108382703Y-119514787D02*
X108293844Y-119456118D01*
X108293844Y-119456118D02*
X108228796Y-119438688D01*
X108228796Y-119438688D02*
X108122508Y-119445068D01*
X108122508Y-119445068D02*
X107916311Y-119564115D01*
X107916311Y-119564115D02*
X107857642Y-119652974D01*
X107857642Y-119652974D02*
X107840212Y-119718023D01*
X107840212Y-119718023D02*
X107846592Y-119824311D01*
X107846592Y-119824311D02*
X107989449Y-120071747D01*
X107989449Y-120071747D02*
X108078307Y-120130416D01*
X108078307Y-120130416D02*
X108143356Y-120147845D01*
X108450712Y-118870678D02*
X108141189Y-118334567D01*
X108141189Y-118334567D02*
X107977941Y-118813719D01*
X107977941Y-118813719D02*
X107906512Y-118690001D01*
X107906512Y-118690001D02*
X107817654Y-118631332D01*
X107817654Y-118631332D02*
X107752605Y-118613902D01*
X107752605Y-118613902D02*
X107646317Y-118620282D01*
X107646317Y-118620282D02*
X107440120Y-118739329D01*
X107440120Y-118739329D02*
X107381451Y-118828188D01*
X107381451Y-118828188D02*
X107364022Y-118893237D01*
X107364022Y-118893237D02*
X107370401Y-118999525D01*
X107370401Y-118999525D02*
X107513259Y-119246960D01*
X107513259Y-119246960D02*
X107602117Y-119305630D01*
X107602117Y-119305630D02*
X107667166Y-119323059D01*
%TO.C,TH1*%
X99735713Y-105854819D02*
X99164285Y-105854819D01*
X99449999Y-106854819D02*
X99449999Y-105854819D01*
X98830951Y-106854819D02*
X98830951Y-105854819D01*
X98830951Y-106331009D02*
X98259523Y-106331009D01*
X98259523Y-106854819D02*
X98259523Y-105854819D01*
X97259523Y-106854819D02*
X97830951Y-106854819D01*
X97545237Y-106854819D02*
X97545237Y-105854819D01*
X97545237Y-105854819D02*
X97640475Y-105997676D01*
X97640475Y-105997676D02*
X97735713Y-106092914D01*
X97735713Y-106092914D02*
X97830951Y-106140533D01*
%TO.C,R2*%
X87066666Y-96854819D02*
X87399999Y-96378628D01*
X87638094Y-96854819D02*
X87638094Y-95854819D01*
X87638094Y-95854819D02*
X87257142Y-95854819D01*
X87257142Y-95854819D02*
X87161904Y-95902438D01*
X87161904Y-95902438D02*
X87114285Y-95950057D01*
X87114285Y-95950057D02*
X87066666Y-96045295D01*
X87066666Y-96045295D02*
X87066666Y-96188152D01*
X87066666Y-96188152D02*
X87114285Y-96283390D01*
X87114285Y-96283390D02*
X87161904Y-96331009D01*
X87161904Y-96331009D02*
X87257142Y-96378628D01*
X87257142Y-96378628D02*
X87638094Y-96378628D01*
X86685713Y-95950057D02*
X86638094Y-95902438D01*
X86638094Y-95902438D02*
X86542856Y-95854819D01*
X86542856Y-95854819D02*
X86304761Y-95854819D01*
X86304761Y-95854819D02*
X86209523Y-95902438D01*
X86209523Y-95902438D02*
X86161904Y-95950057D01*
X86161904Y-95950057D02*
X86114285Y-96045295D01*
X86114285Y-96045295D02*
X86114285Y-96140533D01*
X86114285Y-96140533D02*
X86161904Y-96283390D01*
X86161904Y-96283390D02*
X86733332Y-96854819D01*
X86733332Y-96854819D02*
X86114285Y-96854819D01*
%TO.C,J2*%
X108489819Y-114566666D02*
X109204104Y-114566666D01*
X109204104Y-114566666D02*
X109346961Y-114519047D01*
X109346961Y-114519047D02*
X109442200Y-114423809D01*
X109442200Y-114423809D02*
X109489819Y-114280952D01*
X109489819Y-114280952D02*
X109489819Y-114185714D01*
X108585057Y-114995238D02*
X108537438Y-115042857D01*
X108537438Y-115042857D02*
X108489819Y-115138095D01*
X108489819Y-115138095D02*
X108489819Y-115376190D01*
X108489819Y-115376190D02*
X108537438Y-115471428D01*
X108537438Y-115471428D02*
X108585057Y-115519047D01*
X108585057Y-115519047D02*
X108680295Y-115566666D01*
X108680295Y-115566666D02*
X108775533Y-115566666D01*
X108775533Y-115566666D02*
X108918390Y-115519047D01*
X108918390Y-115519047D02*
X109489819Y-114947619D01*
X109489819Y-114947619D02*
X109489819Y-115566666D01*
D12*
%TO.C,BT1*%
X95885714Y-110481109D02*
X95742857Y-110528728D01*
X95742857Y-110528728D02*
X95695238Y-110576347D01*
X95695238Y-110576347D02*
X95647619Y-110671585D01*
X95647619Y-110671585D02*
X95647619Y-110814442D01*
X95647619Y-110814442D02*
X95695238Y-110909680D01*
X95695238Y-110909680D02*
X95742857Y-110957300D01*
X95742857Y-110957300D02*
X95838095Y-111004919D01*
X95838095Y-111004919D02*
X96219047Y-111004919D01*
X96219047Y-111004919D02*
X96219047Y-110004919D01*
X96219047Y-110004919D02*
X95885714Y-110004919D01*
X95885714Y-110004919D02*
X95790476Y-110052538D01*
X95790476Y-110052538D02*
X95742857Y-110100157D01*
X95742857Y-110100157D02*
X95695238Y-110195395D01*
X95695238Y-110195395D02*
X95695238Y-110290633D01*
X95695238Y-110290633D02*
X95742857Y-110385871D01*
X95742857Y-110385871D02*
X95790476Y-110433490D01*
X95790476Y-110433490D02*
X95885714Y-110481109D01*
X95885714Y-110481109D02*
X96219047Y-110481109D01*
X95361904Y-110004919D02*
X94790476Y-110004919D01*
X95076190Y-111004919D02*
X95076190Y-110004919D01*
X93933333Y-111004919D02*
X94504761Y-111004919D01*
X94219047Y-111004919D02*
X94219047Y-110004919D01*
X94219047Y-110004919D02*
X94314285Y-110147776D01*
X94314285Y-110147776D02*
X94409523Y-110243014D01*
X94409523Y-110243014D02*
X94504761Y-110290633D01*
D11*
%TO.C,R28*%
X112481245Y-110202878D02*
X113008015Y-109957152D01*
X112976116Y-110488592D02*
X113476116Y-109622567D01*
X113476116Y-109622567D02*
X113146202Y-109432091D01*
X113146202Y-109432091D02*
X113039914Y-109425711D01*
X113039914Y-109425711D02*
X112974865Y-109443141D01*
X112974865Y-109443141D02*
X112886007Y-109501810D01*
X112886007Y-109501810D02*
X112814578Y-109625528D01*
X112814578Y-109625528D02*
X112808198Y-109731816D01*
X112808198Y-109731816D02*
X112825628Y-109796865D01*
X112825628Y-109796865D02*
X112884297Y-109885723D01*
X112884297Y-109885723D02*
X113214212Y-110076199D01*
X112603711Y-109228855D02*
X112586281Y-109163806D01*
X112586281Y-109163806D02*
X112527612Y-109074948D01*
X112527612Y-109074948D02*
X112321416Y-108955900D01*
X112321416Y-108955900D02*
X112215128Y-108949520D01*
X112215128Y-108949520D02*
X112150079Y-108966950D01*
X112150079Y-108966950D02*
X112061220Y-109025619D01*
X112061220Y-109025619D02*
X112013601Y-109108098D01*
X112013601Y-109108098D02*
X111983412Y-109255625D01*
X111983412Y-109255625D02*
X112192569Y-110036211D01*
X112192569Y-110036211D02*
X111656459Y-109726687D01*
X111447301Y-108946101D02*
X111553589Y-108952481D01*
X111553589Y-108952481D02*
X111618638Y-108935051D01*
X111618638Y-108935051D02*
X111707496Y-108876382D01*
X111707496Y-108876382D02*
X111731306Y-108835143D01*
X111731306Y-108835143D02*
X111737686Y-108728855D01*
X111737686Y-108728855D02*
X111720256Y-108663806D01*
X111720256Y-108663806D02*
X111661587Y-108574948D01*
X111661587Y-108574948D02*
X111496630Y-108479710D01*
X111496630Y-108479710D02*
X111390341Y-108473330D01*
X111390341Y-108473330D02*
X111325293Y-108490760D01*
X111325293Y-108490760D02*
X111236434Y-108549429D01*
X111236434Y-108549429D02*
X111212625Y-108590668D01*
X111212625Y-108590668D02*
X111206245Y-108696956D01*
X111206245Y-108696956D02*
X111223675Y-108762005D01*
X111223675Y-108762005D02*
X111282344Y-108850863D01*
X111282344Y-108850863D02*
X111447301Y-108946101D01*
X111447301Y-108946101D02*
X111505970Y-109034960D01*
X111505970Y-109034960D02*
X111523400Y-109100009D01*
X111523400Y-109100009D02*
X111517020Y-109206297D01*
X111517020Y-109206297D02*
X111421782Y-109371254D01*
X111421782Y-109371254D02*
X111332924Y-109429923D01*
X111332924Y-109429923D02*
X111267875Y-109447353D01*
X111267875Y-109447353D02*
X111161587Y-109440973D01*
X111161587Y-109440973D02*
X110996630Y-109345735D01*
X110996630Y-109345735D02*
X110937961Y-109256877D01*
X110937961Y-109256877D02*
X110920531Y-109191828D01*
X110920531Y-109191828D02*
X110926910Y-109085540D01*
X110926910Y-109085540D02*
X111022149Y-108920583D01*
X111022149Y-108920583D02*
X111111007Y-108861913D01*
X111111007Y-108861913D02*
X111176056Y-108844484D01*
X111176056Y-108844484D02*
X111282344Y-108850863D01*
%TO.C,U3*%
X90161904Y-107054819D02*
X90161904Y-107864342D01*
X90161904Y-107864342D02*
X90114285Y-107959580D01*
X90114285Y-107959580D02*
X90066666Y-108007200D01*
X90066666Y-108007200D02*
X89971428Y-108054819D01*
X89971428Y-108054819D02*
X89780952Y-108054819D01*
X89780952Y-108054819D02*
X89685714Y-108007200D01*
X89685714Y-108007200D02*
X89638095Y-107959580D01*
X89638095Y-107959580D02*
X89590476Y-107864342D01*
X89590476Y-107864342D02*
X89590476Y-107054819D01*
X89209523Y-107054819D02*
X88590476Y-107054819D01*
X88590476Y-107054819D02*
X88923809Y-107435771D01*
X88923809Y-107435771D02*
X88780952Y-107435771D01*
X88780952Y-107435771D02*
X88685714Y-107483390D01*
X88685714Y-107483390D02*
X88638095Y-107531009D01*
X88638095Y-107531009D02*
X88590476Y-107626247D01*
X88590476Y-107626247D02*
X88590476Y-107864342D01*
X88590476Y-107864342D02*
X88638095Y-107959580D01*
X88638095Y-107959580D02*
X88685714Y-108007200D01*
X88685714Y-108007200D02*
X88780952Y-108054819D01*
X88780952Y-108054819D02*
X89066666Y-108054819D01*
X89066666Y-108054819D02*
X89161904Y-108007200D01*
X89161904Y-108007200D02*
X89209523Y-107959580D01*
%TO.C,R53*%
X85181056Y-90352877D02*
X85707826Y-90107151D01*
X85675927Y-90638591D02*
X86175927Y-89772566D01*
X86175927Y-89772566D02*
X85846013Y-89582090D01*
X85846013Y-89582090D02*
X85739725Y-89575710D01*
X85739725Y-89575710D02*
X85674676Y-89593140D01*
X85674676Y-89593140D02*
X85585818Y-89651809D01*
X85585818Y-89651809D02*
X85514389Y-89775527D01*
X85514389Y-89775527D02*
X85508009Y-89881815D01*
X85508009Y-89881815D02*
X85525439Y-89946864D01*
X85525439Y-89946864D02*
X85584108Y-90035722D01*
X85584108Y-90035722D02*
X85914023Y-90226198D01*
X84897509Y-89034471D02*
X85309902Y-89272566D01*
X85309902Y-89272566D02*
X85113046Y-89708768D01*
X85113046Y-89708768D02*
X85095616Y-89643720D01*
X85095616Y-89643720D02*
X85036947Y-89554861D01*
X85036947Y-89554861D02*
X84830751Y-89435814D01*
X84830751Y-89435814D02*
X84724462Y-89429434D01*
X84724462Y-89429434D02*
X84659414Y-89446864D01*
X84659414Y-89446864D02*
X84570555Y-89505533D01*
X84570555Y-89505533D02*
X84451508Y-89711729D01*
X84451508Y-89711729D02*
X84445128Y-89818017D01*
X84445128Y-89818017D02*
X84462558Y-89883066D01*
X84462558Y-89883066D02*
X84521227Y-89971925D01*
X84521227Y-89971925D02*
X84727423Y-90090972D01*
X84727423Y-90090972D02*
X84833711Y-90097352D01*
X84833711Y-90097352D02*
X84898760Y-90079922D01*
X84567594Y-88843994D02*
X84031483Y-88534471D01*
X84031483Y-88534471D02*
X84129682Y-89031052D01*
X84129682Y-89031052D02*
X84005964Y-88959623D01*
X84005964Y-88959623D02*
X83899676Y-88953243D01*
X83899676Y-88953243D02*
X83834627Y-88970673D01*
X83834627Y-88970673D02*
X83745769Y-89029342D01*
X83745769Y-89029342D02*
X83626721Y-89235539D01*
X83626721Y-89235539D02*
X83620342Y-89341827D01*
X83620342Y-89341827D02*
X83637772Y-89406876D01*
X83637772Y-89406876D02*
X83696441Y-89495734D01*
X83696441Y-89495734D02*
X83943876Y-89638591D01*
X83943876Y-89638591D02*
X84050165Y-89644971D01*
X84050165Y-89644971D02*
X84115213Y-89627541D01*
%TO.C,R10*%
X87442857Y-103054819D02*
X87776190Y-102578628D01*
X88014285Y-103054819D02*
X88014285Y-102054819D01*
X88014285Y-102054819D02*
X87633333Y-102054819D01*
X87633333Y-102054819D02*
X87538095Y-102102438D01*
X87538095Y-102102438D02*
X87490476Y-102150057D01*
X87490476Y-102150057D02*
X87442857Y-102245295D01*
X87442857Y-102245295D02*
X87442857Y-102388152D01*
X87442857Y-102388152D02*
X87490476Y-102483390D01*
X87490476Y-102483390D02*
X87538095Y-102531009D01*
X87538095Y-102531009D02*
X87633333Y-102578628D01*
X87633333Y-102578628D02*
X88014285Y-102578628D01*
X86490476Y-103054819D02*
X87061904Y-103054819D01*
X86776190Y-103054819D02*
X86776190Y-102054819D01*
X86776190Y-102054819D02*
X86871428Y-102197676D01*
X86871428Y-102197676D02*
X86966666Y-102292914D01*
X86966666Y-102292914D02*
X87061904Y-102340533D01*
X85871428Y-102054819D02*
X85776190Y-102054819D01*
X85776190Y-102054819D02*
X85680952Y-102102438D01*
X85680952Y-102102438D02*
X85633333Y-102150057D01*
X85633333Y-102150057D02*
X85585714Y-102245295D01*
X85585714Y-102245295D02*
X85538095Y-102435771D01*
X85538095Y-102435771D02*
X85538095Y-102673866D01*
X85538095Y-102673866D02*
X85585714Y-102864342D01*
X85585714Y-102864342D02*
X85633333Y-102959580D01*
X85633333Y-102959580D02*
X85680952Y-103007200D01*
X85680952Y-103007200D02*
X85776190Y-103054819D01*
X85776190Y-103054819D02*
X85871428Y-103054819D01*
X85871428Y-103054819D02*
X85966666Y-103007200D01*
X85966666Y-103007200D02*
X86014285Y-102959580D01*
X86014285Y-102959580D02*
X86061904Y-102864342D01*
X86061904Y-102864342D02*
X86109523Y-102673866D01*
X86109523Y-102673866D02*
X86109523Y-102435771D01*
X86109523Y-102435771D02*
X86061904Y-102245295D01*
X86061904Y-102245295D02*
X86014285Y-102150057D01*
X86014285Y-102150057D02*
X85966666Y-102102438D01*
X85966666Y-102102438D02*
X85871428Y-102054819D01*
D12*
%TO.C,SW3*%
X105009800Y-119066667D02*
X105057419Y-119209524D01*
X105057419Y-119209524D02*
X105057419Y-119447619D01*
X105057419Y-119447619D02*
X105009800Y-119542857D01*
X105009800Y-119542857D02*
X104962180Y-119590476D01*
X104962180Y-119590476D02*
X104866942Y-119638095D01*
X104866942Y-119638095D02*
X104771704Y-119638095D01*
X104771704Y-119638095D02*
X104676466Y-119590476D01*
X104676466Y-119590476D02*
X104628847Y-119542857D01*
X104628847Y-119542857D02*
X104581228Y-119447619D01*
X104581228Y-119447619D02*
X104533609Y-119257143D01*
X104533609Y-119257143D02*
X104485990Y-119161905D01*
X104485990Y-119161905D02*
X104438371Y-119114286D01*
X104438371Y-119114286D02*
X104343133Y-119066667D01*
X104343133Y-119066667D02*
X104247895Y-119066667D01*
X104247895Y-119066667D02*
X104152657Y-119114286D01*
X104152657Y-119114286D02*
X104105038Y-119161905D01*
X104105038Y-119161905D02*
X104057419Y-119257143D01*
X104057419Y-119257143D02*
X104057419Y-119495238D01*
X104057419Y-119495238D02*
X104105038Y-119638095D01*
X104057419Y-119971429D02*
X105057419Y-120209524D01*
X105057419Y-120209524D02*
X104343133Y-120400000D01*
X104343133Y-120400000D02*
X105057419Y-120590476D01*
X105057419Y-120590476D02*
X104057419Y-120828572D01*
X104057419Y-121114286D02*
X104057419Y-121733333D01*
X104057419Y-121733333D02*
X104438371Y-121400000D01*
X104438371Y-121400000D02*
X104438371Y-121542857D01*
X104438371Y-121542857D02*
X104485990Y-121638095D01*
X104485990Y-121638095D02*
X104533609Y-121685714D01*
X104533609Y-121685714D02*
X104628847Y-121733333D01*
X104628847Y-121733333D02*
X104866942Y-121733333D01*
X104866942Y-121733333D02*
X104962180Y-121685714D01*
X104962180Y-121685714D02*
X105009800Y-121638095D01*
X105009800Y-121638095D02*
X105057419Y-121542857D01*
X105057419Y-121542857D02*
X105057419Y-121257143D01*
X105057419Y-121257143D02*
X105009800Y-121161905D01*
X105009800Y-121161905D02*
X104962180Y-121114286D01*
D11*
%TO.C,Q1*%
X107150057Y-89104761D02*
X107102438Y-89009523D01*
X107102438Y-89009523D02*
X107007200Y-88914285D01*
X107007200Y-88914285D02*
X106864342Y-88771428D01*
X106864342Y-88771428D02*
X106816723Y-88676190D01*
X106816723Y-88676190D02*
X106816723Y-88580952D01*
X107054819Y-88628571D02*
X107007200Y-88533333D01*
X107007200Y-88533333D02*
X106911961Y-88438095D01*
X106911961Y-88438095D02*
X106721485Y-88390476D01*
X106721485Y-88390476D02*
X106388152Y-88390476D01*
X106388152Y-88390476D02*
X106197676Y-88438095D01*
X106197676Y-88438095D02*
X106102438Y-88533333D01*
X106102438Y-88533333D02*
X106054819Y-88628571D01*
X106054819Y-88628571D02*
X106054819Y-88819047D01*
X106054819Y-88819047D02*
X106102438Y-88914285D01*
X106102438Y-88914285D02*
X106197676Y-89009523D01*
X106197676Y-89009523D02*
X106388152Y-89057142D01*
X106388152Y-89057142D02*
X106721485Y-89057142D01*
X106721485Y-89057142D02*
X106911961Y-89009523D01*
X106911961Y-89009523D02*
X107007200Y-88914285D01*
X107007200Y-88914285D02*
X107054819Y-88819047D01*
X107054819Y-88819047D02*
X107054819Y-88628571D01*
X107054819Y-90009523D02*
X107054819Y-89438095D01*
X107054819Y-89723809D02*
X106054819Y-89723809D01*
X106054819Y-89723809D02*
X106197676Y-89628571D01*
X106197676Y-89628571D02*
X106292914Y-89533333D01*
X106292914Y-89533333D02*
X106340533Y-89438095D01*
%TO.C,C11*%
X92767857Y-87629580D02*
X92815476Y-87677200D01*
X92815476Y-87677200D02*
X92958333Y-87724819D01*
X92958333Y-87724819D02*
X93053571Y-87724819D01*
X93053571Y-87724819D02*
X93196428Y-87677200D01*
X93196428Y-87677200D02*
X93291666Y-87581961D01*
X93291666Y-87581961D02*
X93339285Y-87486723D01*
X93339285Y-87486723D02*
X93386904Y-87296247D01*
X93386904Y-87296247D02*
X93386904Y-87153390D01*
X93386904Y-87153390D02*
X93339285Y-86962914D01*
X93339285Y-86962914D02*
X93291666Y-86867676D01*
X93291666Y-86867676D02*
X93196428Y-86772438D01*
X93196428Y-86772438D02*
X93053571Y-86724819D01*
X93053571Y-86724819D02*
X92958333Y-86724819D01*
X92958333Y-86724819D02*
X92815476Y-86772438D01*
X92815476Y-86772438D02*
X92767857Y-86820057D01*
X91815476Y-87724819D02*
X92386904Y-87724819D01*
X92101190Y-87724819D02*
X92101190Y-86724819D01*
X92101190Y-86724819D02*
X92196428Y-86867676D01*
X92196428Y-86867676D02*
X92291666Y-86962914D01*
X92291666Y-86962914D02*
X92386904Y-87010533D01*
X90863095Y-87724819D02*
X91434523Y-87724819D01*
X91148809Y-87724819D02*
X91148809Y-86724819D01*
X91148809Y-86724819D02*
X91244047Y-86867676D01*
X91244047Y-86867676D02*
X91339285Y-86962914D01*
X91339285Y-86962914D02*
X91434523Y-87010533D01*
%TO.C,R4*%
X106954819Y-98533333D02*
X106478628Y-98200000D01*
X106954819Y-97961905D02*
X105954819Y-97961905D01*
X105954819Y-97961905D02*
X105954819Y-98342857D01*
X105954819Y-98342857D02*
X106002438Y-98438095D01*
X106002438Y-98438095D02*
X106050057Y-98485714D01*
X106050057Y-98485714D02*
X106145295Y-98533333D01*
X106145295Y-98533333D02*
X106288152Y-98533333D01*
X106288152Y-98533333D02*
X106383390Y-98485714D01*
X106383390Y-98485714D02*
X106431009Y-98438095D01*
X106431009Y-98438095D02*
X106478628Y-98342857D01*
X106478628Y-98342857D02*
X106478628Y-97961905D01*
X106288152Y-99390476D02*
X106954819Y-99390476D01*
X105907200Y-99152381D02*
X106621485Y-98914286D01*
X106621485Y-98914286D02*
X106621485Y-99533333D01*
%TO.C,C3*%
X99016666Y-116809580D02*
X99064285Y-116857200D01*
X99064285Y-116857200D02*
X99207142Y-116904819D01*
X99207142Y-116904819D02*
X99302380Y-116904819D01*
X99302380Y-116904819D02*
X99445237Y-116857200D01*
X99445237Y-116857200D02*
X99540475Y-116761961D01*
X99540475Y-116761961D02*
X99588094Y-116666723D01*
X99588094Y-116666723D02*
X99635713Y-116476247D01*
X99635713Y-116476247D02*
X99635713Y-116333390D01*
X99635713Y-116333390D02*
X99588094Y-116142914D01*
X99588094Y-116142914D02*
X99540475Y-116047676D01*
X99540475Y-116047676D02*
X99445237Y-115952438D01*
X99445237Y-115952438D02*
X99302380Y-115904819D01*
X99302380Y-115904819D02*
X99207142Y-115904819D01*
X99207142Y-115904819D02*
X99064285Y-115952438D01*
X99064285Y-115952438D02*
X99016666Y-116000057D01*
X98683332Y-115904819D02*
X98064285Y-115904819D01*
X98064285Y-115904819D02*
X98397618Y-116285771D01*
X98397618Y-116285771D02*
X98254761Y-116285771D01*
X98254761Y-116285771D02*
X98159523Y-116333390D01*
X98159523Y-116333390D02*
X98111904Y-116381009D01*
X98111904Y-116381009D02*
X98064285Y-116476247D01*
X98064285Y-116476247D02*
X98064285Y-116714342D01*
X98064285Y-116714342D02*
X98111904Y-116809580D01*
X98111904Y-116809580D02*
X98159523Y-116857200D01*
X98159523Y-116857200D02*
X98254761Y-116904819D01*
X98254761Y-116904819D02*
X98540475Y-116904819D01*
X98540475Y-116904819D02*
X98635713Y-116857200D01*
X98635713Y-116857200D02*
X98683332Y-116809580D01*
%TO.C,Q3*%
X102295238Y-87750057D02*
X102390476Y-87702438D01*
X102390476Y-87702438D02*
X102485714Y-87607200D01*
X102485714Y-87607200D02*
X102628571Y-87464342D01*
X102628571Y-87464342D02*
X102723809Y-87416723D01*
X102723809Y-87416723D02*
X102819047Y-87416723D01*
X102771428Y-87654819D02*
X102866666Y-87607200D01*
X102866666Y-87607200D02*
X102961904Y-87511961D01*
X102961904Y-87511961D02*
X103009523Y-87321485D01*
X103009523Y-87321485D02*
X103009523Y-86988152D01*
X103009523Y-86988152D02*
X102961904Y-86797676D01*
X102961904Y-86797676D02*
X102866666Y-86702438D01*
X102866666Y-86702438D02*
X102771428Y-86654819D01*
X102771428Y-86654819D02*
X102580952Y-86654819D01*
X102580952Y-86654819D02*
X102485714Y-86702438D01*
X102485714Y-86702438D02*
X102390476Y-86797676D01*
X102390476Y-86797676D02*
X102342857Y-86988152D01*
X102342857Y-86988152D02*
X102342857Y-87321485D01*
X102342857Y-87321485D02*
X102390476Y-87511961D01*
X102390476Y-87511961D02*
X102485714Y-87607200D01*
X102485714Y-87607200D02*
X102580952Y-87654819D01*
X102580952Y-87654819D02*
X102771428Y-87654819D01*
X102009523Y-86654819D02*
X101390476Y-86654819D01*
X101390476Y-86654819D02*
X101723809Y-87035771D01*
X101723809Y-87035771D02*
X101580952Y-87035771D01*
X101580952Y-87035771D02*
X101485714Y-87083390D01*
X101485714Y-87083390D02*
X101438095Y-87131009D01*
X101438095Y-87131009D02*
X101390476Y-87226247D01*
X101390476Y-87226247D02*
X101390476Y-87464342D01*
X101390476Y-87464342D02*
X101438095Y-87559580D01*
X101438095Y-87559580D02*
X101485714Y-87607200D01*
X101485714Y-87607200D02*
X101580952Y-87654819D01*
X101580952Y-87654819D02*
X101866666Y-87654819D01*
X101866666Y-87654819D02*
X101961904Y-87607200D01*
X101961904Y-87607200D02*
X102009523Y-87559580D01*
%TO.C,R57*%
X91989978Y-84235875D02*
X92569038Y-84286455D01*
X92275693Y-84730746D02*
X93141718Y-84230746D01*
X93141718Y-84230746D02*
X92951242Y-83900832D01*
X92951242Y-83900832D02*
X92862383Y-83842163D01*
X92862383Y-83842163D02*
X92797335Y-83824733D01*
X92797335Y-83824733D02*
X92691046Y-83831113D01*
X92691046Y-83831113D02*
X92567329Y-83902541D01*
X92567329Y-83902541D02*
X92508659Y-83991400D01*
X92508659Y-83991400D02*
X92491230Y-84056449D01*
X92491230Y-84056449D02*
X92497609Y-84162737D01*
X92497609Y-84162737D02*
X92688086Y-84492651D01*
X92403623Y-82952328D02*
X92641718Y-83364721D01*
X92641718Y-83364721D02*
X92253134Y-83644055D01*
X92253134Y-83644055D02*
X92270564Y-83579007D01*
X92270564Y-83579007D02*
X92264184Y-83472719D01*
X92264184Y-83472719D02*
X92145137Y-83266522D01*
X92145137Y-83266522D02*
X92056278Y-83207853D01*
X92056278Y-83207853D02*
X91991230Y-83190423D01*
X91991230Y-83190423D02*
X91884942Y-83196803D01*
X91884942Y-83196803D02*
X91678745Y-83315850D01*
X91678745Y-83315850D02*
X91620076Y-83404709D01*
X91620076Y-83404709D02*
X91602646Y-83469758D01*
X91602646Y-83469758D02*
X91609026Y-83576046D01*
X91609026Y-83576046D02*
X91728073Y-83782242D01*
X91728073Y-83782242D02*
X91816932Y-83840911D01*
X91816932Y-83840911D02*
X91881981Y-83858341D01*
X92213146Y-82622413D02*
X91879813Y-82045063D01*
X91879813Y-82045063D02*
X91228073Y-82916217D01*
%TO.C,Q2*%
X98750057Y-90804761D02*
X98702438Y-90709523D01*
X98702438Y-90709523D02*
X98607200Y-90614285D01*
X98607200Y-90614285D02*
X98464342Y-90471428D01*
X98464342Y-90471428D02*
X98416723Y-90376190D01*
X98416723Y-90376190D02*
X98416723Y-90280952D01*
X98654819Y-90328571D02*
X98607200Y-90233333D01*
X98607200Y-90233333D02*
X98511961Y-90138095D01*
X98511961Y-90138095D02*
X98321485Y-90090476D01*
X98321485Y-90090476D02*
X97988152Y-90090476D01*
X97988152Y-90090476D02*
X97797676Y-90138095D01*
X97797676Y-90138095D02*
X97702438Y-90233333D01*
X97702438Y-90233333D02*
X97654819Y-90328571D01*
X97654819Y-90328571D02*
X97654819Y-90519047D01*
X97654819Y-90519047D02*
X97702438Y-90614285D01*
X97702438Y-90614285D02*
X97797676Y-90709523D01*
X97797676Y-90709523D02*
X97988152Y-90757142D01*
X97988152Y-90757142D02*
X98321485Y-90757142D01*
X98321485Y-90757142D02*
X98511961Y-90709523D01*
X98511961Y-90709523D02*
X98607200Y-90614285D01*
X98607200Y-90614285D02*
X98654819Y-90519047D01*
X98654819Y-90519047D02*
X98654819Y-90328571D01*
X97750057Y-91138095D02*
X97702438Y-91185714D01*
X97702438Y-91185714D02*
X97654819Y-91280952D01*
X97654819Y-91280952D02*
X97654819Y-91519047D01*
X97654819Y-91519047D02*
X97702438Y-91614285D01*
X97702438Y-91614285D02*
X97750057Y-91661904D01*
X97750057Y-91661904D02*
X97845295Y-91709523D01*
X97845295Y-91709523D02*
X97940533Y-91709523D01*
X97940533Y-91709523D02*
X98083390Y-91661904D01*
X98083390Y-91661904D02*
X98654819Y-91090476D01*
X98654819Y-91090476D02*
X98654819Y-91709523D01*
%TO.C,R1*%
X86766666Y-100054819D02*
X87099999Y-99578628D01*
X87338094Y-100054819D02*
X87338094Y-99054819D01*
X87338094Y-99054819D02*
X86957142Y-99054819D01*
X86957142Y-99054819D02*
X86861904Y-99102438D01*
X86861904Y-99102438D02*
X86814285Y-99150057D01*
X86814285Y-99150057D02*
X86766666Y-99245295D01*
X86766666Y-99245295D02*
X86766666Y-99388152D01*
X86766666Y-99388152D02*
X86814285Y-99483390D01*
X86814285Y-99483390D02*
X86861904Y-99531009D01*
X86861904Y-99531009D02*
X86957142Y-99578628D01*
X86957142Y-99578628D02*
X87338094Y-99578628D01*
X85814285Y-100054819D02*
X86385713Y-100054819D01*
X86099999Y-100054819D02*
X86099999Y-99054819D01*
X86099999Y-99054819D02*
X86195237Y-99197676D01*
X86195237Y-99197676D02*
X86290475Y-99292914D01*
X86290475Y-99292914D02*
X86385713Y-99340533D01*
%TO.C,C4*%
X87052425Y-114658275D02*
X87052425Y-114725619D01*
X87052425Y-114725619D02*
X87119769Y-114860306D01*
X87119769Y-114860306D02*
X87187112Y-114927649D01*
X87187112Y-114927649D02*
X87321799Y-114994993D01*
X87321799Y-114994993D02*
X87456486Y-114994993D01*
X87456486Y-114994993D02*
X87557501Y-114961321D01*
X87557501Y-114961321D02*
X87725860Y-114860306D01*
X87725860Y-114860306D02*
X87826875Y-114759291D01*
X87826875Y-114759291D02*
X87927891Y-114590932D01*
X87927891Y-114590932D02*
X87961562Y-114489917D01*
X87961562Y-114489917D02*
X87961562Y-114355230D01*
X87961562Y-114355230D02*
X87894219Y-114220543D01*
X87894219Y-114220543D02*
X87826875Y-114153199D01*
X87826875Y-114153199D02*
X87692188Y-114085856D01*
X87692188Y-114085856D02*
X87624845Y-114085856D01*
X86850395Y-113648123D02*
X86378990Y-114119527D01*
X87288127Y-113547108D02*
X86951410Y-114220543D01*
X86951410Y-114220543D02*
X86513677Y-113782810D01*
%TO.C,R61*%
X104054819Y-82357142D02*
X103578628Y-82023809D01*
X104054819Y-81785714D02*
X103054819Y-81785714D01*
X103054819Y-81785714D02*
X103054819Y-82166666D01*
X103054819Y-82166666D02*
X103102438Y-82261904D01*
X103102438Y-82261904D02*
X103150057Y-82309523D01*
X103150057Y-82309523D02*
X103245295Y-82357142D01*
X103245295Y-82357142D02*
X103388152Y-82357142D01*
X103388152Y-82357142D02*
X103483390Y-82309523D01*
X103483390Y-82309523D02*
X103531009Y-82261904D01*
X103531009Y-82261904D02*
X103578628Y-82166666D01*
X103578628Y-82166666D02*
X103578628Y-81785714D01*
X103054819Y-83214285D02*
X103054819Y-83023809D01*
X103054819Y-83023809D02*
X103102438Y-82928571D01*
X103102438Y-82928571D02*
X103150057Y-82880952D01*
X103150057Y-82880952D02*
X103292914Y-82785714D01*
X103292914Y-82785714D02*
X103483390Y-82738095D01*
X103483390Y-82738095D02*
X103864342Y-82738095D01*
X103864342Y-82738095D02*
X103959580Y-82785714D01*
X103959580Y-82785714D02*
X104007200Y-82833333D01*
X104007200Y-82833333D02*
X104054819Y-82928571D01*
X104054819Y-82928571D02*
X104054819Y-83119047D01*
X104054819Y-83119047D02*
X104007200Y-83214285D01*
X104007200Y-83214285D02*
X103959580Y-83261904D01*
X103959580Y-83261904D02*
X103864342Y-83309523D01*
X103864342Y-83309523D02*
X103626247Y-83309523D01*
X103626247Y-83309523D02*
X103531009Y-83261904D01*
X103531009Y-83261904D02*
X103483390Y-83214285D01*
X103483390Y-83214285D02*
X103435771Y-83119047D01*
X103435771Y-83119047D02*
X103435771Y-82928571D01*
X103435771Y-82928571D02*
X103483390Y-82833333D01*
X103483390Y-82833333D02*
X103531009Y-82785714D01*
X103531009Y-82785714D02*
X103626247Y-82738095D01*
X104054819Y-84261904D02*
X104054819Y-83690476D01*
X104054819Y-83976190D02*
X103054819Y-83976190D01*
X103054819Y-83976190D02*
X103197676Y-83880952D01*
X103197676Y-83880952D02*
X103292914Y-83785714D01*
X103292914Y-83785714D02*
X103340533Y-83690476D01*
%TO.C,R56*%
X90654339Y-85122478D02*
X91233399Y-85173058D01*
X90940054Y-85617349D02*
X91806079Y-85117349D01*
X91806079Y-85117349D02*
X91615603Y-84787435D01*
X91615603Y-84787435D02*
X91526744Y-84728766D01*
X91526744Y-84728766D02*
X91461696Y-84711336D01*
X91461696Y-84711336D02*
X91355407Y-84717716D01*
X91355407Y-84717716D02*
X91231690Y-84789144D01*
X91231690Y-84789144D02*
X91173020Y-84878003D01*
X91173020Y-84878003D02*
X91155591Y-84943052D01*
X91155591Y-84943052D02*
X91161970Y-85049340D01*
X91161970Y-85049340D02*
X91352447Y-85379254D01*
X91067984Y-83838931D02*
X91306079Y-84251324D01*
X91306079Y-84251324D02*
X90917495Y-84530658D01*
X90917495Y-84530658D02*
X90934925Y-84465610D01*
X90934925Y-84465610D02*
X90928545Y-84359322D01*
X90928545Y-84359322D02*
X90809498Y-84153125D01*
X90809498Y-84153125D02*
X90720639Y-84094456D01*
X90720639Y-84094456D02*
X90655591Y-84077026D01*
X90655591Y-84077026D02*
X90549303Y-84083406D01*
X90549303Y-84083406D02*
X90343106Y-84202453D01*
X90343106Y-84202453D02*
X90284437Y-84291312D01*
X90284437Y-84291312D02*
X90267007Y-84356361D01*
X90267007Y-84356361D02*
X90273387Y-84462649D01*
X90273387Y-84462649D02*
X90392434Y-84668845D01*
X90392434Y-84668845D02*
X90481293Y-84727514D01*
X90481293Y-84727514D02*
X90546342Y-84744944D01*
X90615603Y-83055384D02*
X90710841Y-83220341D01*
X90710841Y-83220341D02*
X90717221Y-83326629D01*
X90717221Y-83326629D02*
X90699791Y-83391678D01*
X90699791Y-83391678D02*
X90623692Y-83545585D01*
X90623692Y-83545585D02*
X90482544Y-83682063D01*
X90482544Y-83682063D02*
X90152630Y-83872539D01*
X90152630Y-83872539D02*
X90046342Y-83878919D01*
X90046342Y-83878919D02*
X89981293Y-83861489D01*
X89981293Y-83861489D02*
X89892434Y-83802820D01*
X89892434Y-83802820D02*
X89797196Y-83637863D01*
X89797196Y-83637863D02*
X89790817Y-83531575D01*
X89790817Y-83531575D02*
X89808246Y-83466526D01*
X89808246Y-83466526D02*
X89866915Y-83377667D01*
X89866915Y-83377667D02*
X90073112Y-83258620D01*
X90073112Y-83258620D02*
X90179400Y-83252240D01*
X90179400Y-83252240D02*
X90244449Y-83269670D01*
X90244449Y-83269670D02*
X90333307Y-83328339D01*
X90333307Y-83328339D02*
X90428545Y-83493296D01*
X90428545Y-83493296D02*
X90434925Y-83599584D01*
X90434925Y-83599584D02*
X90417495Y-83664633D01*
X90417495Y-83664633D02*
X90358826Y-83753491D01*
%TO.C,R36*%
X94304819Y-116257142D02*
X93828628Y-115923809D01*
X94304819Y-115685714D02*
X93304819Y-115685714D01*
X93304819Y-115685714D02*
X93304819Y-116066666D01*
X93304819Y-116066666D02*
X93352438Y-116161904D01*
X93352438Y-116161904D02*
X93400057Y-116209523D01*
X93400057Y-116209523D02*
X93495295Y-116257142D01*
X93495295Y-116257142D02*
X93638152Y-116257142D01*
X93638152Y-116257142D02*
X93733390Y-116209523D01*
X93733390Y-116209523D02*
X93781009Y-116161904D01*
X93781009Y-116161904D02*
X93828628Y-116066666D01*
X93828628Y-116066666D02*
X93828628Y-115685714D01*
X93304819Y-116590476D02*
X93304819Y-117209523D01*
X93304819Y-117209523D02*
X93685771Y-116876190D01*
X93685771Y-116876190D02*
X93685771Y-117019047D01*
X93685771Y-117019047D02*
X93733390Y-117114285D01*
X93733390Y-117114285D02*
X93781009Y-117161904D01*
X93781009Y-117161904D02*
X93876247Y-117209523D01*
X93876247Y-117209523D02*
X94114342Y-117209523D01*
X94114342Y-117209523D02*
X94209580Y-117161904D01*
X94209580Y-117161904D02*
X94257200Y-117114285D01*
X94257200Y-117114285D02*
X94304819Y-117019047D01*
X94304819Y-117019047D02*
X94304819Y-116733333D01*
X94304819Y-116733333D02*
X94257200Y-116638095D01*
X94257200Y-116638095D02*
X94209580Y-116590476D01*
X93304819Y-118066666D02*
X93304819Y-117876190D01*
X93304819Y-117876190D02*
X93352438Y-117780952D01*
X93352438Y-117780952D02*
X93400057Y-117733333D01*
X93400057Y-117733333D02*
X93542914Y-117638095D01*
X93542914Y-117638095D02*
X93733390Y-117590476D01*
X93733390Y-117590476D02*
X94114342Y-117590476D01*
X94114342Y-117590476D02*
X94209580Y-117638095D01*
X94209580Y-117638095D02*
X94257200Y-117685714D01*
X94257200Y-117685714D02*
X94304819Y-117780952D01*
X94304819Y-117780952D02*
X94304819Y-117971428D01*
X94304819Y-117971428D02*
X94257200Y-118066666D01*
X94257200Y-118066666D02*
X94209580Y-118114285D01*
X94209580Y-118114285D02*
X94114342Y-118161904D01*
X94114342Y-118161904D02*
X93876247Y-118161904D01*
X93876247Y-118161904D02*
X93781009Y-118114285D01*
X93781009Y-118114285D02*
X93733390Y-118066666D01*
X93733390Y-118066666D02*
X93685771Y-117971428D01*
X93685771Y-117971428D02*
X93685771Y-117780952D01*
X93685771Y-117780952D02*
X93733390Y-117685714D01*
X93733390Y-117685714D02*
X93781009Y-117638095D01*
X93781009Y-117638095D02*
X93876247Y-117590476D01*
%TO.C,R3*%
X102504819Y-98483333D02*
X102028628Y-98150000D01*
X102504819Y-97911905D02*
X101504819Y-97911905D01*
X101504819Y-97911905D02*
X101504819Y-98292857D01*
X101504819Y-98292857D02*
X101552438Y-98388095D01*
X101552438Y-98388095D02*
X101600057Y-98435714D01*
X101600057Y-98435714D02*
X101695295Y-98483333D01*
X101695295Y-98483333D02*
X101838152Y-98483333D01*
X101838152Y-98483333D02*
X101933390Y-98435714D01*
X101933390Y-98435714D02*
X101981009Y-98388095D01*
X101981009Y-98388095D02*
X102028628Y-98292857D01*
X102028628Y-98292857D02*
X102028628Y-97911905D01*
X101504819Y-98816667D02*
X101504819Y-99435714D01*
X101504819Y-99435714D02*
X101885771Y-99102381D01*
X101885771Y-99102381D02*
X101885771Y-99245238D01*
X101885771Y-99245238D02*
X101933390Y-99340476D01*
X101933390Y-99340476D02*
X101981009Y-99388095D01*
X101981009Y-99388095D02*
X102076247Y-99435714D01*
X102076247Y-99435714D02*
X102314342Y-99435714D01*
X102314342Y-99435714D02*
X102409580Y-99388095D01*
X102409580Y-99388095D02*
X102457200Y-99340476D01*
X102457200Y-99340476D02*
X102504819Y-99245238D01*
X102504819Y-99245238D02*
X102504819Y-98959524D01*
X102504819Y-98959524D02*
X102457200Y-98864286D01*
X102457200Y-98864286D02*
X102409580Y-98816667D01*
%TO.C,C1*%
X98491666Y-83959580D02*
X98539285Y-84007200D01*
X98539285Y-84007200D02*
X98682142Y-84054819D01*
X98682142Y-84054819D02*
X98777380Y-84054819D01*
X98777380Y-84054819D02*
X98920237Y-84007200D01*
X98920237Y-84007200D02*
X99015475Y-83911961D01*
X99015475Y-83911961D02*
X99063094Y-83816723D01*
X99063094Y-83816723D02*
X99110713Y-83626247D01*
X99110713Y-83626247D02*
X99110713Y-83483390D01*
X99110713Y-83483390D02*
X99063094Y-83292914D01*
X99063094Y-83292914D02*
X99015475Y-83197676D01*
X99015475Y-83197676D02*
X98920237Y-83102438D01*
X98920237Y-83102438D02*
X98777380Y-83054819D01*
X98777380Y-83054819D02*
X98682142Y-83054819D01*
X98682142Y-83054819D02*
X98539285Y-83102438D01*
X98539285Y-83102438D02*
X98491666Y-83150057D01*
X97539285Y-84054819D02*
X98110713Y-84054819D01*
X97824999Y-84054819D02*
X97824999Y-83054819D01*
X97824999Y-83054819D02*
X97920237Y-83197676D01*
X97920237Y-83197676D02*
X98015475Y-83292914D01*
X98015475Y-83292914D02*
X98110713Y-83340533D01*
D12*
%TO.C,SW2*%
X112579387Y-81593769D02*
X112512043Y-81728456D01*
X112512043Y-81728456D02*
X112343684Y-81896815D01*
X112343684Y-81896815D02*
X112242669Y-81930487D01*
X112242669Y-81930487D02*
X112175326Y-81930487D01*
X112175326Y-81930487D02*
X112074310Y-81896815D01*
X112074310Y-81896815D02*
X112006967Y-81829471D01*
X112006967Y-81829471D02*
X111973295Y-81728456D01*
X111973295Y-81728456D02*
X111973295Y-81661113D01*
X111973295Y-81661113D02*
X112006967Y-81560097D01*
X112006967Y-81560097D02*
X112107982Y-81391739D01*
X112107982Y-81391739D02*
X112141654Y-81290723D01*
X112141654Y-81290723D02*
X112141654Y-81223380D01*
X112141654Y-81223380D02*
X112107982Y-81122365D01*
X112107982Y-81122365D02*
X112040639Y-81055021D01*
X112040639Y-81055021D02*
X111939623Y-81021349D01*
X111939623Y-81021349D02*
X111872280Y-81021349D01*
X111872280Y-81021349D02*
X111771264Y-81055021D01*
X111771264Y-81055021D02*
X111602906Y-81223380D01*
X111602906Y-81223380D02*
X111535562Y-81358067D01*
X111266188Y-81560097D02*
X111804936Y-82435563D01*
X111804936Y-82435563D02*
X111165173Y-82065174D01*
X111165173Y-82065174D02*
X111535562Y-82704937D01*
X111535562Y-82704937D02*
X110660097Y-82166189D01*
X110491738Y-82469235D02*
X110424395Y-82469235D01*
X110424395Y-82469235D02*
X110323379Y-82502906D01*
X110323379Y-82502906D02*
X110155020Y-82671265D01*
X110155020Y-82671265D02*
X110121349Y-82772280D01*
X110121349Y-82772280D02*
X110121349Y-82839624D01*
X110121349Y-82839624D02*
X110155020Y-82940639D01*
X110155020Y-82940639D02*
X110222364Y-83007983D01*
X110222364Y-83007983D02*
X110357051Y-83075326D01*
X110357051Y-83075326D02*
X111165173Y-83075326D01*
X111165173Y-83075326D02*
X110727440Y-83513059D01*
D11*
%TO.C,R11*%
X87467857Y-107484819D02*
X87801190Y-107008628D01*
X88039285Y-107484819D02*
X88039285Y-106484819D01*
X88039285Y-106484819D02*
X87658333Y-106484819D01*
X87658333Y-106484819D02*
X87563095Y-106532438D01*
X87563095Y-106532438D02*
X87515476Y-106580057D01*
X87515476Y-106580057D02*
X87467857Y-106675295D01*
X87467857Y-106675295D02*
X87467857Y-106818152D01*
X87467857Y-106818152D02*
X87515476Y-106913390D01*
X87515476Y-106913390D02*
X87563095Y-106961009D01*
X87563095Y-106961009D02*
X87658333Y-107008628D01*
X87658333Y-107008628D02*
X88039285Y-107008628D01*
X86515476Y-107484819D02*
X87086904Y-107484819D01*
X86801190Y-107484819D02*
X86801190Y-106484819D01*
X86801190Y-106484819D02*
X86896428Y-106627676D01*
X86896428Y-106627676D02*
X86991666Y-106722914D01*
X86991666Y-106722914D02*
X87086904Y-106770533D01*
X85563095Y-107484819D02*
X86134523Y-107484819D01*
X85848809Y-107484819D02*
X85848809Y-106484819D01*
X85848809Y-106484819D02*
X85944047Y-106627676D01*
X85944047Y-106627676D02*
X86039285Y-106722914D01*
X86039285Y-106722914D02*
X86134523Y-106770533D01*
%TO.C,R16*%
X107301916Y-83318754D02*
X107056190Y-82791984D01*
X107587630Y-82823883D02*
X106721605Y-82323883D01*
X106721605Y-82323883D02*
X106531129Y-82653797D01*
X106531129Y-82653797D02*
X106524749Y-82760085D01*
X106524749Y-82760085D02*
X106542179Y-82825134D01*
X106542179Y-82825134D02*
X106600848Y-82913992D01*
X106600848Y-82913992D02*
X106724566Y-82985421D01*
X106724566Y-82985421D02*
X106830854Y-82991801D01*
X106830854Y-82991801D02*
X106895903Y-82974371D01*
X106895903Y-82974371D02*
X106984761Y-82915702D01*
X106984761Y-82915702D02*
X107175237Y-82585787D01*
X106825725Y-84143540D02*
X107111440Y-83648669D01*
X106968583Y-83896105D02*
X106102557Y-83396105D01*
X106102557Y-83396105D02*
X106273894Y-83385055D01*
X106273894Y-83385055D02*
X106403992Y-83350195D01*
X106403992Y-83350195D02*
X106492850Y-83291526D01*
X105531129Y-84385848D02*
X105626367Y-84220891D01*
X105626367Y-84220891D02*
X105715225Y-84162222D01*
X105715225Y-84162222D02*
X105780274Y-84144792D01*
X105780274Y-84144792D02*
X105951611Y-84133742D01*
X105951611Y-84133742D02*
X106140378Y-84187741D01*
X106140378Y-84187741D02*
X106470292Y-84378217D01*
X106470292Y-84378217D02*
X106528961Y-84467075D01*
X106528961Y-84467075D02*
X106546391Y-84532124D01*
X106546391Y-84532124D02*
X106540011Y-84638412D01*
X106540011Y-84638412D02*
X106444773Y-84803369D01*
X106444773Y-84803369D02*
X106355915Y-84862038D01*
X106355915Y-84862038D02*
X106290866Y-84879468D01*
X106290866Y-84879468D02*
X106184578Y-84873089D01*
X106184578Y-84873089D02*
X105978381Y-84754041D01*
X105978381Y-84754041D02*
X105919712Y-84665183D01*
X105919712Y-84665183D02*
X105902282Y-84600134D01*
X105902282Y-84600134D02*
X105908662Y-84493846D01*
X105908662Y-84493846D02*
X106003900Y-84328888D01*
X106003900Y-84328888D02*
X106092759Y-84270219D01*
X106092759Y-84270219D02*
X106157807Y-84252789D01*
X106157807Y-84252789D02*
X106264096Y-84259169D01*
%TO.C,R20*%
X115286064Y-94360022D02*
X115336644Y-93780962D01*
X115780935Y-94074307D02*
X115280935Y-93208282D01*
X115280935Y-93208282D02*
X114951021Y-93398758D01*
X114951021Y-93398758D02*
X114892352Y-93487617D01*
X114892352Y-93487617D02*
X114874922Y-93552665D01*
X114874922Y-93552665D02*
X114881302Y-93658954D01*
X114881302Y-93658954D02*
X114952730Y-93782671D01*
X114952730Y-93782671D02*
X115041589Y-93841341D01*
X115041589Y-93841341D02*
X115106638Y-93858770D01*
X115106638Y-93858770D02*
X115212926Y-93852391D01*
X115212926Y-93852391D02*
X115542840Y-93661914D01*
X114503768Y-93766951D02*
X114438719Y-93749521D01*
X114438719Y-93749521D02*
X114332431Y-93755901D01*
X114332431Y-93755901D02*
X114126235Y-93874949D01*
X114126235Y-93874949D02*
X114067566Y-93963807D01*
X114067566Y-93963807D02*
X114050136Y-94028856D01*
X114050136Y-94028856D02*
X114056516Y-94135144D01*
X114056516Y-94135144D02*
X114104135Y-94217623D01*
X114104135Y-94217623D02*
X114216803Y-94317531D01*
X114216803Y-94317531D02*
X114997389Y-94526688D01*
X114997389Y-94526688D02*
X114461278Y-94836212D01*
X113425167Y-94279711D02*
X113342688Y-94327330D01*
X113342688Y-94327330D02*
X113284019Y-94416188D01*
X113284019Y-94416188D02*
X113266589Y-94481237D01*
X113266589Y-94481237D02*
X113272969Y-94587525D01*
X113272969Y-94587525D02*
X113326968Y-94776292D01*
X113326968Y-94776292D02*
X113446015Y-94982488D01*
X113446015Y-94982488D02*
X113582493Y-95123636D01*
X113582493Y-95123636D02*
X113671351Y-95182305D01*
X113671351Y-95182305D02*
X113736400Y-95199735D01*
X113736400Y-95199735D02*
X113842688Y-95193355D01*
X113842688Y-95193355D02*
X113925167Y-95145736D01*
X113925167Y-95145736D02*
X113983836Y-95056878D01*
X113983836Y-95056878D02*
X114001265Y-94991829D01*
X114001265Y-94991829D02*
X113994886Y-94885541D01*
X113994886Y-94885541D02*
X113940887Y-94696774D01*
X113940887Y-94696774D02*
X113821839Y-94490577D01*
X113821839Y-94490577D02*
X113685362Y-94349430D01*
X113685362Y-94349430D02*
X113596504Y-94290761D01*
X113596504Y-94290761D02*
X113531455Y-94273331D01*
X113531455Y-94273331D02*
X113425167Y-94279711D01*
%TO.C,R21*%
X116172667Y-95695661D02*
X116223247Y-95116601D01*
X116667538Y-95409946D02*
X116167538Y-94543921D01*
X116167538Y-94543921D02*
X115837624Y-94734397D01*
X115837624Y-94734397D02*
X115778955Y-94823256D01*
X115778955Y-94823256D02*
X115761525Y-94888304D01*
X115761525Y-94888304D02*
X115767905Y-94994593D01*
X115767905Y-94994593D02*
X115839333Y-95118310D01*
X115839333Y-95118310D02*
X115928192Y-95176980D01*
X115928192Y-95176980D02*
X115993241Y-95194409D01*
X115993241Y-95194409D02*
X116099529Y-95188030D01*
X116099529Y-95188030D02*
X116429443Y-94997553D01*
X115390371Y-95102590D02*
X115325322Y-95085160D01*
X115325322Y-95085160D02*
X115219034Y-95091540D01*
X115219034Y-95091540D02*
X115012838Y-95210588D01*
X115012838Y-95210588D02*
X114954169Y-95299446D01*
X114954169Y-95299446D02*
X114936739Y-95364495D01*
X114936739Y-95364495D02*
X114943119Y-95470783D01*
X114943119Y-95470783D02*
X114990738Y-95553262D01*
X114990738Y-95553262D02*
X115103406Y-95653170D01*
X115103406Y-95653170D02*
X115883992Y-95862327D01*
X115883992Y-95862327D02*
X115347881Y-96171851D01*
X114523094Y-96648042D02*
X115017966Y-96362327D01*
X114770530Y-96505185D02*
X114270530Y-95639159D01*
X114270530Y-95639159D02*
X114424437Y-95715258D01*
X114424437Y-95715258D02*
X114554535Y-95750118D01*
X114554535Y-95750118D02*
X114660823Y-95743738D01*
%TO.C,R48*%
X81242857Y-108054819D02*
X81576190Y-107578628D01*
X81814285Y-108054819D02*
X81814285Y-107054819D01*
X81814285Y-107054819D02*
X81433333Y-107054819D01*
X81433333Y-107054819D02*
X81338095Y-107102438D01*
X81338095Y-107102438D02*
X81290476Y-107150057D01*
X81290476Y-107150057D02*
X81242857Y-107245295D01*
X81242857Y-107245295D02*
X81242857Y-107388152D01*
X81242857Y-107388152D02*
X81290476Y-107483390D01*
X81290476Y-107483390D02*
X81338095Y-107531009D01*
X81338095Y-107531009D02*
X81433333Y-107578628D01*
X81433333Y-107578628D02*
X81814285Y-107578628D01*
X80385714Y-107388152D02*
X80385714Y-108054819D01*
X80623809Y-107007200D02*
X80861904Y-107721485D01*
X80861904Y-107721485D02*
X80242857Y-107721485D01*
X79719047Y-107483390D02*
X79814285Y-107435771D01*
X79814285Y-107435771D02*
X79861904Y-107388152D01*
X79861904Y-107388152D02*
X79909523Y-107292914D01*
X79909523Y-107292914D02*
X79909523Y-107245295D01*
X79909523Y-107245295D02*
X79861904Y-107150057D01*
X79861904Y-107150057D02*
X79814285Y-107102438D01*
X79814285Y-107102438D02*
X79719047Y-107054819D01*
X79719047Y-107054819D02*
X79528571Y-107054819D01*
X79528571Y-107054819D02*
X79433333Y-107102438D01*
X79433333Y-107102438D02*
X79385714Y-107150057D01*
X79385714Y-107150057D02*
X79338095Y-107245295D01*
X79338095Y-107245295D02*
X79338095Y-107292914D01*
X79338095Y-107292914D02*
X79385714Y-107388152D01*
X79385714Y-107388152D02*
X79433333Y-107435771D01*
X79433333Y-107435771D02*
X79528571Y-107483390D01*
X79528571Y-107483390D02*
X79719047Y-107483390D01*
X79719047Y-107483390D02*
X79814285Y-107531009D01*
X79814285Y-107531009D02*
X79861904Y-107578628D01*
X79861904Y-107578628D02*
X79909523Y-107673866D01*
X79909523Y-107673866D02*
X79909523Y-107864342D01*
X79909523Y-107864342D02*
X79861904Y-107959580D01*
X79861904Y-107959580D02*
X79814285Y-108007200D01*
X79814285Y-108007200D02*
X79719047Y-108054819D01*
X79719047Y-108054819D02*
X79528571Y-108054819D01*
X79528571Y-108054819D02*
X79433333Y-108007200D01*
X79433333Y-108007200D02*
X79385714Y-107959580D01*
X79385714Y-107959580D02*
X79338095Y-107864342D01*
X79338095Y-107864342D02*
X79338095Y-107673866D01*
X79338095Y-107673866D02*
X79385714Y-107578628D01*
X79385714Y-107578628D02*
X79433333Y-107531009D01*
X79433333Y-107531009D02*
X79528571Y-107483390D01*
D13*
%TO.C,R45*%
X89814285Y-109313335D02*
X90080952Y-108932382D01*
X90271428Y-109313335D02*
X90271428Y-108513335D01*
X90271428Y-108513335D02*
X89966666Y-108513335D01*
X89966666Y-108513335D02*
X89890476Y-108551430D01*
X89890476Y-108551430D02*
X89852381Y-108589525D01*
X89852381Y-108589525D02*
X89814285Y-108665716D01*
X89814285Y-108665716D02*
X89814285Y-108780001D01*
X89814285Y-108780001D02*
X89852381Y-108856192D01*
X89852381Y-108856192D02*
X89890476Y-108894287D01*
X89890476Y-108894287D02*
X89966666Y-108932382D01*
X89966666Y-108932382D02*
X90271428Y-108932382D01*
X89128571Y-108780001D02*
X89128571Y-109313335D01*
X89319047Y-108475240D02*
X89509524Y-109046668D01*
X89509524Y-109046668D02*
X89014285Y-109046668D01*
X88328571Y-108513335D02*
X88709523Y-108513335D01*
X88709523Y-108513335D02*
X88747619Y-108894287D01*
X88747619Y-108894287D02*
X88709523Y-108856192D01*
X88709523Y-108856192D02*
X88633333Y-108818097D01*
X88633333Y-108818097D02*
X88442857Y-108818097D01*
X88442857Y-108818097D02*
X88366666Y-108856192D01*
X88366666Y-108856192D02*
X88328571Y-108894287D01*
X88328571Y-108894287D02*
X88290476Y-108970478D01*
X88290476Y-108970478D02*
X88290476Y-109160954D01*
X88290476Y-109160954D02*
X88328571Y-109237144D01*
X88328571Y-109237144D02*
X88366666Y-109275240D01*
X88366666Y-109275240D02*
X88442857Y-109313335D01*
X88442857Y-109313335D02*
X88633333Y-109313335D01*
X88633333Y-109313335D02*
X88709523Y-109275240D01*
X88709523Y-109275240D02*
X88747619Y-109237144D01*
D11*
%TO.C,R8*%
X92766666Y-100024819D02*
X93099999Y-99548628D01*
X93338094Y-100024819D02*
X93338094Y-99024819D01*
X93338094Y-99024819D02*
X92957142Y-99024819D01*
X92957142Y-99024819D02*
X92861904Y-99072438D01*
X92861904Y-99072438D02*
X92814285Y-99120057D01*
X92814285Y-99120057D02*
X92766666Y-99215295D01*
X92766666Y-99215295D02*
X92766666Y-99358152D01*
X92766666Y-99358152D02*
X92814285Y-99453390D01*
X92814285Y-99453390D02*
X92861904Y-99501009D01*
X92861904Y-99501009D02*
X92957142Y-99548628D01*
X92957142Y-99548628D02*
X93338094Y-99548628D01*
X92195237Y-99453390D02*
X92290475Y-99405771D01*
X92290475Y-99405771D02*
X92338094Y-99358152D01*
X92338094Y-99358152D02*
X92385713Y-99262914D01*
X92385713Y-99262914D02*
X92385713Y-99215295D01*
X92385713Y-99215295D02*
X92338094Y-99120057D01*
X92338094Y-99120057D02*
X92290475Y-99072438D01*
X92290475Y-99072438D02*
X92195237Y-99024819D01*
X92195237Y-99024819D02*
X92004761Y-99024819D01*
X92004761Y-99024819D02*
X91909523Y-99072438D01*
X91909523Y-99072438D02*
X91861904Y-99120057D01*
X91861904Y-99120057D02*
X91814285Y-99215295D01*
X91814285Y-99215295D02*
X91814285Y-99262914D01*
X91814285Y-99262914D02*
X91861904Y-99358152D01*
X91861904Y-99358152D02*
X91909523Y-99405771D01*
X91909523Y-99405771D02*
X92004761Y-99453390D01*
X92004761Y-99453390D02*
X92195237Y-99453390D01*
X92195237Y-99453390D02*
X92290475Y-99501009D01*
X92290475Y-99501009D02*
X92338094Y-99548628D01*
X92338094Y-99548628D02*
X92385713Y-99643866D01*
X92385713Y-99643866D02*
X92385713Y-99834342D01*
X92385713Y-99834342D02*
X92338094Y-99929580D01*
X92338094Y-99929580D02*
X92290475Y-99977200D01*
X92290475Y-99977200D02*
X92195237Y-100024819D01*
X92195237Y-100024819D02*
X92004761Y-100024819D01*
X92004761Y-100024819D02*
X91909523Y-99977200D01*
X91909523Y-99977200D02*
X91861904Y-99929580D01*
X91861904Y-99929580D02*
X91814285Y-99834342D01*
X91814285Y-99834342D02*
X91814285Y-99643866D01*
X91814285Y-99643866D02*
X91861904Y-99548628D01*
X91861904Y-99548628D02*
X91909523Y-99501009D01*
X91909523Y-99501009D02*
X92004761Y-99453390D01*
%TO.C,R65*%
X112242857Y-102604819D02*
X112576190Y-102128628D01*
X112814285Y-102604819D02*
X112814285Y-101604819D01*
X112814285Y-101604819D02*
X112433333Y-101604819D01*
X112433333Y-101604819D02*
X112338095Y-101652438D01*
X112338095Y-101652438D02*
X112290476Y-101700057D01*
X112290476Y-101700057D02*
X112242857Y-101795295D01*
X112242857Y-101795295D02*
X112242857Y-101938152D01*
X112242857Y-101938152D02*
X112290476Y-102033390D01*
X112290476Y-102033390D02*
X112338095Y-102081009D01*
X112338095Y-102081009D02*
X112433333Y-102128628D01*
X112433333Y-102128628D02*
X112814285Y-102128628D01*
X111385714Y-101604819D02*
X111576190Y-101604819D01*
X111576190Y-101604819D02*
X111671428Y-101652438D01*
X111671428Y-101652438D02*
X111719047Y-101700057D01*
X111719047Y-101700057D02*
X111814285Y-101842914D01*
X111814285Y-101842914D02*
X111861904Y-102033390D01*
X111861904Y-102033390D02*
X111861904Y-102414342D01*
X111861904Y-102414342D02*
X111814285Y-102509580D01*
X111814285Y-102509580D02*
X111766666Y-102557200D01*
X111766666Y-102557200D02*
X111671428Y-102604819D01*
X111671428Y-102604819D02*
X111480952Y-102604819D01*
X111480952Y-102604819D02*
X111385714Y-102557200D01*
X111385714Y-102557200D02*
X111338095Y-102509580D01*
X111338095Y-102509580D02*
X111290476Y-102414342D01*
X111290476Y-102414342D02*
X111290476Y-102176247D01*
X111290476Y-102176247D02*
X111338095Y-102081009D01*
X111338095Y-102081009D02*
X111385714Y-102033390D01*
X111385714Y-102033390D02*
X111480952Y-101985771D01*
X111480952Y-101985771D02*
X111671428Y-101985771D01*
X111671428Y-101985771D02*
X111766666Y-102033390D01*
X111766666Y-102033390D02*
X111814285Y-102081009D01*
X111814285Y-102081009D02*
X111861904Y-102176247D01*
X110385714Y-101604819D02*
X110861904Y-101604819D01*
X110861904Y-101604819D02*
X110909523Y-102081009D01*
X110909523Y-102081009D02*
X110861904Y-102033390D01*
X110861904Y-102033390D02*
X110766666Y-101985771D01*
X110766666Y-101985771D02*
X110528571Y-101985771D01*
X110528571Y-101985771D02*
X110433333Y-102033390D01*
X110433333Y-102033390D02*
X110385714Y-102081009D01*
X110385714Y-102081009D02*
X110338095Y-102176247D01*
X110338095Y-102176247D02*
X110338095Y-102414342D01*
X110338095Y-102414342D02*
X110385714Y-102509580D01*
X110385714Y-102509580D02*
X110433333Y-102557200D01*
X110433333Y-102557200D02*
X110528571Y-102604819D01*
X110528571Y-102604819D02*
X110766666Y-102604819D01*
X110766666Y-102604819D02*
X110861904Y-102557200D01*
X110861904Y-102557200D02*
X110909523Y-102509580D01*
%TO.C,R6*%
X99754819Y-93433333D02*
X99278628Y-93100000D01*
X99754819Y-92861905D02*
X98754819Y-92861905D01*
X98754819Y-92861905D02*
X98754819Y-93242857D01*
X98754819Y-93242857D02*
X98802438Y-93338095D01*
X98802438Y-93338095D02*
X98850057Y-93385714D01*
X98850057Y-93385714D02*
X98945295Y-93433333D01*
X98945295Y-93433333D02*
X99088152Y-93433333D01*
X99088152Y-93433333D02*
X99183390Y-93385714D01*
X99183390Y-93385714D02*
X99231009Y-93338095D01*
X99231009Y-93338095D02*
X99278628Y-93242857D01*
X99278628Y-93242857D02*
X99278628Y-92861905D01*
X98754819Y-94290476D02*
X98754819Y-94100000D01*
X98754819Y-94100000D02*
X98802438Y-94004762D01*
X98802438Y-94004762D02*
X98850057Y-93957143D01*
X98850057Y-93957143D02*
X98992914Y-93861905D01*
X98992914Y-93861905D02*
X99183390Y-93814286D01*
X99183390Y-93814286D02*
X99564342Y-93814286D01*
X99564342Y-93814286D02*
X99659580Y-93861905D01*
X99659580Y-93861905D02*
X99707200Y-93909524D01*
X99707200Y-93909524D02*
X99754819Y-94004762D01*
X99754819Y-94004762D02*
X99754819Y-94195238D01*
X99754819Y-94195238D02*
X99707200Y-94290476D01*
X99707200Y-94290476D02*
X99659580Y-94338095D01*
X99659580Y-94338095D02*
X99564342Y-94385714D01*
X99564342Y-94385714D02*
X99326247Y-94385714D01*
X99326247Y-94385714D02*
X99231009Y-94338095D01*
X99231009Y-94338095D02*
X99183390Y-94290476D01*
X99183390Y-94290476D02*
X99135771Y-94195238D01*
X99135771Y-94195238D02*
X99135771Y-94004762D01*
X99135771Y-94004762D02*
X99183390Y-93909524D01*
X99183390Y-93909524D02*
X99231009Y-93861905D01*
X99231009Y-93861905D02*
X99326247Y-93814286D01*
%TO.C,R24*%
X115542857Y-102704818D02*
X115876190Y-102228627D01*
X116114285Y-102704818D02*
X116114285Y-101704818D01*
X116114285Y-101704818D02*
X115733333Y-101704818D01*
X115733333Y-101704818D02*
X115638095Y-101752437D01*
X115638095Y-101752437D02*
X115590476Y-101800056D01*
X115590476Y-101800056D02*
X115542857Y-101895294D01*
X115542857Y-101895294D02*
X115542857Y-102038151D01*
X115542857Y-102038151D02*
X115590476Y-102133389D01*
X115590476Y-102133389D02*
X115638095Y-102181008D01*
X115638095Y-102181008D02*
X115733333Y-102228627D01*
X115733333Y-102228627D02*
X116114285Y-102228627D01*
X115161904Y-101800056D02*
X115114285Y-101752437D01*
X115114285Y-101752437D02*
X115019047Y-101704818D01*
X115019047Y-101704818D02*
X114780952Y-101704818D01*
X114780952Y-101704818D02*
X114685714Y-101752437D01*
X114685714Y-101752437D02*
X114638095Y-101800056D01*
X114638095Y-101800056D02*
X114590476Y-101895294D01*
X114590476Y-101895294D02*
X114590476Y-101990532D01*
X114590476Y-101990532D02*
X114638095Y-102133389D01*
X114638095Y-102133389D02*
X115209523Y-102704818D01*
X115209523Y-102704818D02*
X114590476Y-102704818D01*
X113733333Y-102038151D02*
X113733333Y-102704818D01*
X113971428Y-101657199D02*
X114209523Y-102371484D01*
X114209523Y-102371484D02*
X113590476Y-102371484D01*
%TO.C,R9*%
X98416666Y-105454819D02*
X98749999Y-104978628D01*
X98988094Y-105454819D02*
X98988094Y-104454819D01*
X98988094Y-104454819D02*
X98607142Y-104454819D01*
X98607142Y-104454819D02*
X98511904Y-104502438D01*
X98511904Y-104502438D02*
X98464285Y-104550057D01*
X98464285Y-104550057D02*
X98416666Y-104645295D01*
X98416666Y-104645295D02*
X98416666Y-104788152D01*
X98416666Y-104788152D02*
X98464285Y-104883390D01*
X98464285Y-104883390D02*
X98511904Y-104931009D01*
X98511904Y-104931009D02*
X98607142Y-104978628D01*
X98607142Y-104978628D02*
X98988094Y-104978628D01*
X97940475Y-105454819D02*
X97749999Y-105454819D01*
X97749999Y-105454819D02*
X97654761Y-105407200D01*
X97654761Y-105407200D02*
X97607142Y-105359580D01*
X97607142Y-105359580D02*
X97511904Y-105216723D01*
X97511904Y-105216723D02*
X97464285Y-105026247D01*
X97464285Y-105026247D02*
X97464285Y-104645295D01*
X97464285Y-104645295D02*
X97511904Y-104550057D01*
X97511904Y-104550057D02*
X97559523Y-104502438D01*
X97559523Y-104502438D02*
X97654761Y-104454819D01*
X97654761Y-104454819D02*
X97845237Y-104454819D01*
X97845237Y-104454819D02*
X97940475Y-104502438D01*
X97940475Y-104502438D02*
X97988094Y-104550057D01*
X97988094Y-104550057D02*
X98035713Y-104645295D01*
X98035713Y-104645295D02*
X98035713Y-104883390D01*
X98035713Y-104883390D02*
X97988094Y-104978628D01*
X97988094Y-104978628D02*
X97940475Y-105026247D01*
X97940475Y-105026247D02*
X97845237Y-105073866D01*
X97845237Y-105073866D02*
X97654761Y-105073866D01*
X97654761Y-105073866D02*
X97559523Y-105026247D01*
X97559523Y-105026247D02*
X97511904Y-104978628D01*
X97511904Y-104978628D02*
X97464285Y-104883390D01*
%TO.C,R52*%
X84467659Y-91788518D02*
X84994429Y-91542792D01*
X84962530Y-92074232D02*
X85462530Y-91208207D01*
X85462530Y-91208207D02*
X85132616Y-91017731D01*
X85132616Y-91017731D02*
X85026328Y-91011351D01*
X85026328Y-91011351D02*
X84961279Y-91028781D01*
X84961279Y-91028781D02*
X84872421Y-91087450D01*
X84872421Y-91087450D02*
X84800992Y-91211168D01*
X84800992Y-91211168D02*
X84794612Y-91317456D01*
X84794612Y-91317456D02*
X84812042Y-91382505D01*
X84812042Y-91382505D02*
X84870711Y-91471363D01*
X84870711Y-91471363D02*
X85200626Y-91661839D01*
X84184112Y-90470112D02*
X84596505Y-90708207D01*
X84596505Y-90708207D02*
X84399649Y-91144409D01*
X84399649Y-91144409D02*
X84382219Y-91079361D01*
X84382219Y-91079361D02*
X84323550Y-90990502D01*
X84323550Y-90990502D02*
X84117354Y-90871455D01*
X84117354Y-90871455D02*
X84011065Y-90865075D01*
X84011065Y-90865075D02*
X83946017Y-90882505D01*
X83946017Y-90882505D02*
X83857158Y-90941174D01*
X83857158Y-90941174D02*
X83738111Y-91147370D01*
X83738111Y-91147370D02*
X83731731Y-91253658D01*
X83731731Y-91253658D02*
X83749161Y-91318707D01*
X83749161Y-91318707D02*
X83807830Y-91407566D01*
X83807830Y-91407566D02*
X84014026Y-91526613D01*
X84014026Y-91526613D02*
X84120314Y-91532993D01*
X84120314Y-91532993D02*
X84185363Y-91515563D01*
X83765339Y-90338304D02*
X83747909Y-90273256D01*
X83747909Y-90273256D02*
X83689240Y-90184397D01*
X83689240Y-90184397D02*
X83483044Y-90065350D01*
X83483044Y-90065350D02*
X83376755Y-90058970D01*
X83376755Y-90058970D02*
X83311707Y-90076400D01*
X83311707Y-90076400D02*
X83222848Y-90135069D01*
X83222848Y-90135069D02*
X83175229Y-90217547D01*
X83175229Y-90217547D02*
X83145040Y-90365075D01*
X83145040Y-90365075D02*
X83354197Y-91145661D01*
X83354197Y-91145661D02*
X82818086Y-90836137D01*
%TO.C,R7*%
X102954819Y-94033333D02*
X102478628Y-93700000D01*
X102954819Y-93461905D02*
X101954819Y-93461905D01*
X101954819Y-93461905D02*
X101954819Y-93842857D01*
X101954819Y-93842857D02*
X102002438Y-93938095D01*
X102002438Y-93938095D02*
X102050057Y-93985714D01*
X102050057Y-93985714D02*
X102145295Y-94033333D01*
X102145295Y-94033333D02*
X102288152Y-94033333D01*
X102288152Y-94033333D02*
X102383390Y-93985714D01*
X102383390Y-93985714D02*
X102431009Y-93938095D01*
X102431009Y-93938095D02*
X102478628Y-93842857D01*
X102478628Y-93842857D02*
X102478628Y-93461905D01*
X101954819Y-94366667D02*
X101954819Y-95033333D01*
X101954819Y-95033333D02*
X102954819Y-94604762D01*
D12*
%TO.C,SW4*%
X83282581Y-110746964D02*
X83215237Y-110881651D01*
X83215237Y-110881651D02*
X83046878Y-111050010D01*
X83046878Y-111050010D02*
X82945863Y-111083682D01*
X82945863Y-111083682D02*
X82878520Y-111083682D01*
X82878520Y-111083682D02*
X82777504Y-111050010D01*
X82777504Y-111050010D02*
X82710161Y-110982666D01*
X82710161Y-110982666D02*
X82676489Y-110881651D01*
X82676489Y-110881651D02*
X82676489Y-110814308D01*
X82676489Y-110814308D02*
X82710161Y-110713292D01*
X82710161Y-110713292D02*
X82811176Y-110544934D01*
X82811176Y-110544934D02*
X82844848Y-110443918D01*
X82844848Y-110443918D02*
X82844848Y-110376575D01*
X82844848Y-110376575D02*
X82811176Y-110275560D01*
X82811176Y-110275560D02*
X82743833Y-110208216D01*
X82743833Y-110208216D02*
X82642817Y-110174544D01*
X82642817Y-110174544D02*
X82575474Y-110174544D01*
X82575474Y-110174544D02*
X82474458Y-110208216D01*
X82474458Y-110208216D02*
X82306100Y-110376575D01*
X82306100Y-110376575D02*
X82238756Y-110511262D01*
X81969382Y-110713292D02*
X82508130Y-111588758D01*
X82508130Y-111588758D02*
X81868367Y-111218369D01*
X81868367Y-111218369D02*
X82238756Y-111858132D01*
X82238756Y-111858132D02*
X81363291Y-111319384D01*
X81026573Y-112127506D02*
X81497978Y-112598910D01*
X80925558Y-111689773D02*
X81598993Y-112026491D01*
X81598993Y-112026491D02*
X81161260Y-112464223D01*
D11*
%TO.C,F1*%
X96533333Y-114481009D02*
X96866666Y-114481009D01*
X96866666Y-115004819D02*
X96866666Y-114004819D01*
X96866666Y-114004819D02*
X96390476Y-114004819D01*
X95485714Y-115004819D02*
X96057142Y-115004819D01*
X95771428Y-115004819D02*
X95771428Y-114004819D01*
X95771428Y-114004819D02*
X95866666Y-114147676D01*
X95866666Y-114147676D02*
X95961904Y-114242914D01*
X95961904Y-114242914D02*
X96057142Y-114290533D01*
%TO.C,U4*%
X89554819Y-89938095D02*
X90364342Y-89938095D01*
X90364342Y-89938095D02*
X90459580Y-89985714D01*
X90459580Y-89985714D02*
X90507200Y-90033333D01*
X90507200Y-90033333D02*
X90554819Y-90128571D01*
X90554819Y-90128571D02*
X90554819Y-90319047D01*
X90554819Y-90319047D02*
X90507200Y-90414285D01*
X90507200Y-90414285D02*
X90459580Y-90461904D01*
X90459580Y-90461904D02*
X90364342Y-90509523D01*
X90364342Y-90509523D02*
X89554819Y-90509523D01*
X89888152Y-91414285D02*
X90554819Y-91414285D01*
X89507200Y-91176190D02*
X90221485Y-90938095D01*
X90221485Y-90938095D02*
X90221485Y-91557142D01*
D14*
%TO.C,C2*%
X112234636Y-87815683D02*
X112035825Y-87616872D01*
X112955885Y-87094434D02*
X112757074Y-86895623D01*
%TO.C,R40*%
X89827911Y-118694221D02*
X90065169Y-118283279D01*
X90732907Y-119216721D02*
X90970165Y-118805779D01*
%TO.C,R29*%
X113994221Y-112771127D02*
X113583279Y-112533869D01*
X114516721Y-111866131D02*
X114105779Y-111628873D01*
%TO.C,C17*%
X105711219Y-101689970D02*
X105910030Y-101888781D01*
X104989970Y-102411219D02*
X105188781Y-102610030D01*
%TO.C,J1*%
X77600000Y-104470000D02*
X78120000Y-104470000D01*
X82170000Y-104470000D02*
X80370000Y-104470000D01*
D12*
X82950000Y-102450000D02*
X82800000Y-102300000D01*
X82950000Y-102450000D02*
X83100000Y-102300000D01*
X82950000Y-102450000D02*
X82950000Y-101800000D01*
X82950000Y-97650000D02*
X82950000Y-98300000D01*
X82950000Y-97650000D02*
X82800000Y-97800000D01*
X82950000Y-97650000D02*
X83100000Y-97800000D01*
D14*
X77600000Y-95530000D02*
X78100000Y-95530000D01*
X82170000Y-95530000D02*
X80370000Y-95530000D01*
D15*
X83100000Y-102890000D02*
G75*
G03*
X83100000Y-102890000I-150000J0D01*
G01*
X83100000Y-97110000D02*
G75*
G03*
X83100000Y-97110000I-150000J0D01*
G01*
D14*
%TO.C,R17*%
X109870165Y-81805779D02*
X109632907Y-82216721D01*
X108965169Y-81283279D02*
X108727911Y-81694221D01*
%TO.C,C10*%
X105915580Y-95010000D02*
X105634420Y-95010000D01*
X105915580Y-93990000D02*
X105634420Y-93990000D01*
%TO.C,R49*%
X83362742Y-105577500D02*
X83837258Y-105577500D01*
X83362742Y-106622500D02*
X83837258Y-106622500D01*
%TO.C,C14*%
X91610000Y-108884420D02*
X91610000Y-109165580D01*
X90590000Y-108884420D02*
X90590000Y-109165580D01*
%TO.C,R32*%
X110816131Y-118366721D02*
X110578873Y-117955779D01*
X111721127Y-117844221D02*
X111483869Y-117433279D01*
%TO.C,C12*%
X89459420Y-100490000D02*
X89740580Y-100490000D01*
X89459420Y-101510000D02*
X89740580Y-101510000D01*
%TO.C,R25*%
X118137258Y-104172500D02*
X117662742Y-104172500D01*
X118137258Y-103127500D02*
X117662742Y-103127500D01*
%TO.C,R41*%
X88528873Y-117944221D02*
X88766131Y-117533279D01*
X89433869Y-118466721D02*
X89671127Y-118055779D01*
%TO.C,R44*%
X86436738Y-109913048D02*
X86911254Y-109913048D01*
X86436738Y-110958048D02*
X86911254Y-110958048D01*
%TO.C,R5*%
X103777500Y-92037258D02*
X103777500Y-91562742D01*
X104822500Y-92037258D02*
X104822500Y-91562742D01*
%TO.C,R37*%
X91877500Y-119837258D02*
X91877500Y-119362742D01*
X92922500Y-119837258D02*
X92922500Y-119362742D01*
%TO.C,R60*%
X101122500Y-82737742D02*
X101122500Y-83212258D01*
X100077500Y-82737742D02*
X100077500Y-83212258D01*
%TO.C,C9*%
X94390000Y-101065580D02*
X94390000Y-100784420D01*
X95410000Y-101065580D02*
X95410000Y-100784420D01*
%TO.C,C15*%
X108890000Y-112640580D02*
X108890000Y-112359420D01*
X109910000Y-112640580D02*
X109910000Y-112359420D01*
%TO.C,C13*%
X92059420Y-93090000D02*
X92340580Y-93090000D01*
X92059420Y-94110000D02*
X92340580Y-94110000D01*
%TO.C,R33*%
X109226901Y-119426458D02*
X108989643Y-119015516D01*
X110131897Y-118903958D02*
X109894639Y-118493016D01*
%TO.C,TH1*%
X95412742Y-105877500D02*
X95887258Y-105877500D01*
X95412742Y-106922500D02*
X95887258Y-106922500D01*
%TO.C,R2*%
X86937258Y-98222500D02*
X86462742Y-98222500D01*
X86937258Y-97177500D02*
X86462742Y-97177500D01*
%TO.C,J2*%
X107970000Y-116490000D02*
X107970000Y-115165000D01*
X101565000Y-115165000D02*
X101565000Y-111635000D01*
X101630000Y-115165000D02*
X101565000Y-115165000D01*
X108035000Y-115165000D02*
X107970000Y-115165000D01*
X108035000Y-115165000D02*
X108035000Y-111635000D01*
X101630000Y-111635000D02*
X101565000Y-111635000D01*
X108035000Y-111635000D02*
X107970000Y-111635000D01*
D12*
%TO.C,BT1*%
X98148000Y-107491500D02*
X97640000Y-107491500D01*
X97894000Y-107237500D02*
X97894000Y-107745500D01*
D14*
%TO.C,R28*%
X114744221Y-111472089D02*
X114333279Y-111234831D01*
X115266721Y-110567093D02*
X114855779Y-110329835D01*
%TO.C,U3*%
X93085000Y-106635000D02*
X93085000Y-105910000D01*
X92360000Y-106635000D02*
X93085000Y-106635000D01*
X92360000Y-102415000D02*
X93085000Y-102415000D01*
X89590000Y-106635000D02*
X88865000Y-106635000D01*
X89590000Y-102415000D02*
X88865000Y-102415000D01*
X88865000Y-106635000D02*
X88865000Y-105910000D01*
X88865000Y-102415000D02*
X88865000Y-103140000D01*
%TO.C,R53*%
X82296041Y-87789643D02*
X82706983Y-88026901D01*
X81773541Y-88694639D02*
X82184483Y-88931897D01*
%TO.C,R10*%
X86587742Y-103477500D02*
X87062258Y-103477500D01*
X86587742Y-104522500D02*
X87062258Y-104522500D01*
%TO.C,Q1*%
X103755000Y-90100000D02*
X105405000Y-90100000D01*
X105405000Y-88300000D02*
X104105000Y-88300000D01*
%TO.C,C11*%
X92265580Y-89210000D02*
X91984420Y-89210000D01*
X92265580Y-88190000D02*
X91984420Y-88190000D01*
%TO.C,R4*%
X104477500Y-98962258D02*
X104477500Y-98487742D01*
X105522500Y-98962258D02*
X105522500Y-98487742D01*
%TO.C,C3*%
X98709420Y-117290000D02*
X98990580Y-117290000D01*
X98709420Y-118310000D02*
X98990580Y-118310000D01*
%TO.C,Q3*%
X103100000Y-90055000D02*
X103100000Y-88405000D01*
X101300000Y-88405000D02*
X101300000Y-89705000D01*
%TO.C,R57*%
X90773099Y-80573541D02*
X91010357Y-80984483D01*
X89868103Y-81096041D02*
X90105361Y-81506983D01*
%TO.C,Q2*%
X100800000Y-91900000D02*
X100800000Y-90250000D01*
X99000000Y-90250000D02*
X99000000Y-91550000D01*
%TO.C,R1*%
X86837258Y-101522500D02*
X86362742Y-101522500D01*
X86837258Y-100477500D02*
X86362742Y-100477500D01*
%TO.C,C4*%
X88461219Y-112814970D02*
X88660030Y-113013781D01*
X87739970Y-113536219D02*
X87938781Y-113735030D01*
%TO.C,R61*%
X102622500Y-82737742D02*
X102622500Y-83212258D01*
X101577500Y-82737742D02*
X101577500Y-83212258D01*
%TO.C,R56*%
X89474062Y-81323541D02*
X89711320Y-81734483D01*
X88569066Y-81846041D02*
X88806324Y-82256983D01*
%TO.C,R36*%
X93377499Y-119837259D02*
X93377499Y-119362743D01*
X94422499Y-119837259D02*
X94422499Y-119362743D01*
%TO.C,R3*%
X102977500Y-98937258D02*
X102977500Y-98462742D01*
X104022500Y-98937258D02*
X104022500Y-98462742D01*
%TO.C,C1*%
X98465580Y-82735000D02*
X98184420Y-82735000D01*
X98465580Y-81715000D02*
X98184420Y-81715000D01*
%TO.C,R11*%
X86587742Y-105077500D02*
X87062258Y-105077500D01*
X86587742Y-106122500D02*
X87062258Y-106122500D01*
%TO.C,R16*%
X108571127Y-81055779D02*
X108333869Y-81466721D01*
X107666131Y-80533279D02*
X107428873Y-80944221D01*
%TO.C,R20*%
X117516721Y-93034832D02*
X117105779Y-93272090D01*
X116994221Y-92129836D02*
X116583279Y-92367094D01*
%TO.C,R21*%
X118266721Y-94333869D02*
X117855779Y-94571127D01*
X117744221Y-93428873D02*
X117333279Y-93666131D01*
%TO.C,R48*%
X83362742Y-107077499D02*
X83837258Y-107077499D01*
X83362742Y-108122499D02*
X83837258Y-108122499D01*
%TO.C,R45*%
X86436738Y-108413049D02*
X86911254Y-108413049D01*
X86436738Y-109458049D02*
X86911254Y-109458049D01*
%TO.C,R8*%
X92837258Y-101522500D02*
X92362742Y-101522500D01*
X92837258Y-100477500D02*
X92362742Y-100477500D01*
%TO.C,R65*%
X108487742Y-101577500D02*
X108962258Y-101577500D01*
X108487742Y-102622500D02*
X108962258Y-102622500D01*
%TO.C,R6*%
X100077500Y-93837258D02*
X100077500Y-93362742D01*
X101122500Y-93837258D02*
X101122500Y-93362742D01*
%TO.C,R24*%
X118137258Y-102672500D02*
X117662742Y-102672500D01*
X118137258Y-101627500D02*
X117662742Y-101627500D01*
%TO.C,R9*%
X95887258Y-105322500D02*
X95412742Y-105322500D01*
X95887258Y-104277500D02*
X95412742Y-104277500D01*
%TO.C,R52*%
X81546041Y-89088681D02*
X81956983Y-89325939D01*
X81023541Y-89993677D02*
X81434483Y-90230935D01*
%TO.C,R7*%
X101977500Y-92037258D02*
X101977500Y-91562742D01*
X103022500Y-92037258D02*
X103022500Y-91562742D01*
%TO.C,F1*%
X93478733Y-113890000D02*
X93821267Y-113890000D01*
X93478733Y-114910000D02*
X93821267Y-114910000D01*
D12*
%TO.C,U4*%
X90375000Y-92100000D02*
X90375000Y-92100000D01*
X90475000Y-92100000D02*
X90475000Y-92100000D01*
X90475000Y-92100000D02*
G75*
G03*
X90375000Y-92100000I-50000J0D01*
G01*
X90375000Y-92100000D02*
G75*
G03*
X90475000Y-92100000I50000J0D01*
G01*
%TD*%
M02*
