M48
; DRILL file {KiCad 7.0.5} date Sat 07 Oct 2023 14:02:02 CEST
; FORMAT={-:-/ absolute / metric / decimal}
; #@! TF.CreationDate,2023-10-07T14:02:02+02:00
; #@! TF.GenerationSoftware,Kicad,Pcbnew,7.0.5
; #@! TF.FileFunction,Plated,1,2,PTH
FMAT,2
METRIC
; #@! TA.AperFunction,Plated,PTH,ViaDrill
T1C0.250
; #@! TA.AperFunction,Plated,PTH,ViaDrill
T2C0.400
; #@! TA.AperFunction,Plated,PTH,ComponentDrill
T3C0.600
%
G90
G05
T1
X79.8Y-98.9
X80.416Y-89.937
X80.6Y-98.75
X80.85Y-110.7
X81.396Y-89.822
X81.6Y-110.8
X84.8Y-97.65
X85.45Y-96.0
X88.5Y-112.45
X88.6Y-117.6
X88.909Y-96.459
X89.131Y-119.148
X89.241Y-81.297
X89.55Y-113.3
X89.794Y-80.744
X90.143Y-113.857
X90.314Y-107.416
X90.9Y-112.8
X91.164Y-111.564
X91.25Y-107.375
X92.561Y-101.639
X92.816Y-106.075
X94.751Y-103.05
X94.85Y-120.55
X95.05Y-100.825
X95.35Y-104.9
X95.664Y-120.514
X95.869Y-102.778
X96.079Y-103.521
X96.881Y-103.496
X97.1Y-82.876
X97.65Y-84.75
X98.175Y-109.75
X98.3Y-117.149
X98.5Y-105.096
X98.75Y-110.5
X99.55Y-108.024
X99.8Y-93.5
X100.254Y-117.246
X100.563Y-107.637
X101.275Y-80.586
X101.4Y-106.7
X101.675Y-79.874
X103.15Y-107.05
X104.35Y-100.575
X106.383Y-100.925
X106.626Y-97.701
X107.8Y-103.65
X109.4Y-80.112
X110.2Y-111.0
X110.25Y-90.55
X110.3Y-118.55
X110.321Y-81.557
X110.574Y-119.274
X111.25Y-90.1
X111.3Y-87.1
X113.4Y-116.1
X113.62Y-92.05
X115.7Y-94.8
X116.25Y-112.05
X116.9Y-111.15
X117.637Y-94.963
X118.314Y-90.699
X118.968Y-110.35
X119.0Y-90.25
X121.288Y-99.668
T2
X81.8Y-97.05
X82.962Y-99.811
X83.75Y-91.95
X84.7Y-84.9
X85.2Y-100.0
X85.6Y-102.35
X86.0Y-112.6
X86.45Y-87.8
X87.05Y-107.2
X87.6Y-89.85
X87.75Y-87.55
X88.8Y-86.5
X89.1Y-103.099
X89.3Y-84.85
X89.3Y-92.7
X89.3Y-93.6
X89.8Y-110.0
X90.3Y-92.7
X90.3Y-93.6
X91.15Y-101.05
X92.35Y-107.45
X93.8Y-88.5
X93.8Y-89.4
X93.85Y-117.55
X93.997Y-105.484
X94.6Y-79.1
X94.8Y-88.5
X94.8Y-89.4
X96.05Y-94.745
X96.35Y-115.75
X96.45Y-110.45
X98.15Y-115.25
X98.874Y-93.4
X99.4Y-83.0
X100.2Y-95.4
X100.524Y-87.6
X101.15Y-105.8
X101.624Y-94.4
X102.65Y-93.75
X102.8Y-107.8
X103.45Y-96.739
X103.805Y-87.795
X104.15Y-94.6
X104.377Y-96.941
X105.2Y-105.0
X105.25Y-84.05
X105.35Y-88.35
X105.8Y-96.4
X105.85Y-121.05
X105.9Y-108.95
X106.1Y-113.3
X106.65Y-103.4
X107.0Y-95.45
X107.2Y-84.05
X108.1Y-96.45
X108.514Y-97.305
X108.8Y-107.85
X108.85Y-94.3
X110.15Y-101.05
X110.25Y-96.65
X111.2Y-111.5
X111.9Y-91.5
X112.206Y-87.994
X112.25Y-94.7
X112.9Y-105.55
X113.15Y-107.5
X113.35Y-103.05
X114.15Y-94.3
X114.75Y-90.35
X115.2Y-96.7
X115.2Y-99.6
X115.35Y-84.55
X115.4Y-115.15
X116.1Y-107.3
X116.95Y-105.25
X118.9Y-96.85
X120.0Y-94.25
X121.15Y-101.15
T3
G00X78.86Y-95.68
M15
G01X79.66Y-95.68
M16
G05
G00X78.86Y-104.32
M15
G01X79.66Y-104.32
M16
G05
G00X82.88Y-95.68
M15
G01X83.98Y-95.68
M16
G05
G00X82.88Y-104.32
M15
G01X83.98Y-104.32
M16
G05
T0
M30
