%TF.GenerationSoftware,KiCad,Pcbnew,7.0.5*%
%TF.CreationDate,2023-10-07T14:02:05+02:00*%
%TF.ProjectId,ClockRev5,436c6f63-6b52-4657-9635-2e6b69636164,rev?*%
%TF.SameCoordinates,Original*%
%TF.FileFunction,Paste,Top*%
%TF.FilePolarity,Positive*%
%FSLAX46Y46*%
G04 Gerber Fmt 4.6, Leading zero omitted, Abs format (unit mm)*
G04 Created by KiCad (PCBNEW 7.0.5) date 2023-10-07 14:02:05*
%MOMM*%
%LPD*%
G01*
G04 APERTURE LIST*
G04 Aperture macros list*
%AMRoundRect*
0 Rectangle with rounded corners*
0 $1 Rounding radius*
0 $2 $3 $4 $5 $6 $7 $8 $9 X,Y pos of 4 corners*
0 Add a 4 corners polygon primitive as box body*
4,1,4,$2,$3,$4,$5,$6,$7,$8,$9,$2,$3,0*
0 Add four circle primitives for the rounded corners*
1,1,$1+$1,$2,$3*
1,1,$1+$1,$4,$5*
1,1,$1+$1,$6,$7*
1,1,$1+$1,$8,$9*
0 Add four rect primitives between the rounded corners*
20,1,$1+$1,$2,$3,$4,$5,0*
20,1,$1+$1,$4,$5,$6,$7,0*
20,1,$1+$1,$6,$7,$8,$9,0*
20,1,$1+$1,$8,$9,$2,$3,0*%
%AMRotRect*
0 Rectangle, with rotation*
0 The origin of the aperture is its center*
0 $1 length*
0 $2 width*
0 $3 Rotation angle, in degrees counterclockwise*
0 Add horizontal line*
21,1,$1,$2,0,0,$3*%
G04 Aperture macros list end*
%ADD10RoundRect,0.200000X0.310705X0.138157X-0.035705X0.338157X-0.310705X-0.138157X0.035705X-0.338157X0*%
%ADD11RotRect,0.650000X0.850000X120.000000*%
%ADD12RoundRect,0.200000X-0.035705X-0.338157X0.310705X-0.138157X0.035705X0.338157X-0.310705X0.138157X0*%
%ADD13RoundRect,0.200000X-0.200000X-0.275000X0.200000X-0.275000X0.200000X0.275000X-0.200000X0.275000X0*%
%ADD14RoundRect,0.200000X0.275000X-0.200000X0.275000X0.200000X-0.275000X0.200000X-0.275000X-0.200000X0*%
%ADD15R,0.450000X0.400000*%
%ADD16R,0.450000X0.500000*%
%ADD17RoundRect,0.243750X0.456250X-0.243750X0.456250X0.243750X-0.456250X0.243750X-0.456250X-0.243750X0*%
%ADD18C,0.250000*%
%ADD19RoundRect,0.225000X0.250000X-0.225000X0.250000X0.225000X-0.250000X0.225000X-0.250000X-0.225000X0*%
%ADD20RotRect,0.450000X0.400000X330.000000*%
%ADD21RotRect,0.450000X0.500000X330.000000*%
%ADD22RotRect,0.650000X0.850000X60.000000*%
%ADD23RoundRect,0.250000X0.275000X0.275000X-0.275000X0.275000X-0.275000X-0.275000X0.275000X-0.275000X0*%
%ADD24RoundRect,0.062500X0.475000X0.062500X-0.475000X0.062500X-0.475000X-0.062500X0.475000X-0.062500X0*%
%ADD25RoundRect,0.062500X0.062500X0.475000X-0.062500X0.475000X-0.062500X-0.475000X0.062500X-0.475000X0*%
%ADD26RoundRect,0.225000X0.225000X0.250000X-0.225000X0.250000X-0.225000X-0.250000X0.225000X-0.250000X0*%
%ADD27RotRect,0.200000X0.475000X135.000000*%
%ADD28RoundRect,0.200000X0.138157X-0.310705X0.338157X0.035705X-0.138157X0.310705X-0.338157X-0.035705X0*%
%ADD29R,0.850000X0.650000*%
%ADD30RoundRect,0.200000X0.200000X0.275000X-0.200000X0.275000X-0.200000X-0.275000X0.200000X-0.275000X0*%
%ADD31R,0.650000X0.850000*%
%ADD32RoundRect,0.225000X-0.250000X0.225000X-0.250000X-0.225000X0.250000X-0.225000X0.250000X0.225000X0*%
%ADD33RoundRect,0.200000X0.035705X0.338157X-0.310705X0.138157X-0.035705X-0.338157X0.310705X-0.138157X0*%
%ADD34RotRect,0.450000X0.400000X240.000000*%
%ADD35RotRect,0.450000X0.500000X240.000000*%
%ADD36R,0.400000X0.450000*%
%ADD37R,0.500000X0.450000*%
%ADD38RotRect,0.650000X0.850000X300.000000*%
%ADD39RoundRect,0.200000X-0.138157X0.310705X-0.338157X-0.035705X0.138157X-0.310705X0.338157X0.035705X0*%
%ADD40RotRect,0.650000X0.850000X330.000000*%
%ADD41RotRect,0.450000X0.400000X300.000000*%
%ADD42RotRect,0.450000X0.500000X300.000000*%
%ADD43RotRect,0.650000X0.850000X30.000000*%
%ADD44RotRect,0.650000X0.850000X150.000000*%
%ADD45RoundRect,0.200000X0.338157X-0.035705X0.138157X0.310705X-0.338157X0.035705X-0.138157X-0.310705X0*%
%ADD46RoundRect,0.200000X-0.338157X0.035705X-0.138157X-0.310705X0.338157X-0.035705X0.138157X0.310705X0*%
%ADD47RotRect,0.450000X0.400000X150.000000*%
%ADD48RotRect,0.450000X0.500000X150.000000*%
%ADD49RoundRect,0.200000X-0.275000X0.200000X-0.275000X-0.200000X0.275000X-0.200000X0.275000X0.200000X0*%
%ADD50RotRect,0.650000X0.850000X210.000000*%
%ADD51RotRect,0.450000X0.400000X30.000000*%
%ADD52RotRect,0.450000X0.500000X30.000000*%
%ADD53RotRect,0.450000X0.400000X60.000000*%
%ADD54RotRect,0.450000X0.500000X60.000000*%
%ADD55RoundRect,0.200000X-0.310705X-0.138157X0.035705X-0.338157X0.310705X0.138157X-0.035705X0.338157X0*%
%ADD56RoundRect,0.200000X-0.335876X-0.053033X-0.053033X-0.335876X0.335876X0.053033X0.053033X0.335876X0*%
%ADD57RotRect,0.450000X0.400000X210.000000*%
%ADD58RotRect,0.450000X0.500000X210.000000*%
%ADD59RotRect,0.450000X0.400000X120.000000*%
%ADD60RotRect,0.450000X0.500000X120.000000*%
%ADD61RotRect,0.650000X0.850000X240.000000*%
%ADD62RoundRect,0.225000X-0.335876X-0.017678X-0.017678X-0.335876X0.335876X0.017678X0.017678X0.335876X0*%
G04 APERTURE END LIST*
D10*
%TO.C,R51*%
X80774348Y-93749806D03*
X79345406Y-92924806D03*
%TD*%
%TO.C,R42*%
X87478942Y-116975000D03*
X86050000Y-116150000D03*
%TD*%
D11*
%TO.C,D8*%
X82437329Y-110630561D03*
X82012329Y-109894439D03*
X83268065Y-109169439D03*
X83693065Y-109905561D03*
%TD*%
D12*
%TO.C,R58*%
X91248557Y-80342057D03*
X92677499Y-79517057D03*
%TD*%
D13*
%TO.C,R23*%
X119774999Y-95800000D03*
X121424999Y-95800000D03*
%TD*%
D14*
%TO.C,R59*%
X95800000Y-80225000D03*
X95800000Y-78575000D03*
%TD*%
D15*
%TO.C,Q6*%
X121125000Y-98100000D03*
X121125000Y-97300000D03*
D16*
X119975000Y-97700000D03*
%TD*%
D17*
%TO.C,D14*%
X107400000Y-105362500D03*
X107400000Y-107237500D03*
%TD*%
D18*
%TO.C,X1*%
X98910000Y-105700000D03*
X98910000Y-104700000D03*
X98500000Y-104700000D03*
X98500000Y-105700000D03*
%TD*%
D19*
%TO.C,C6*%
X100400000Y-106750000D03*
X100400000Y-105200000D03*
%TD*%
D20*
%TO.C,Q13*%
X80854070Y-91178590D03*
X80454070Y-91871410D03*
D21*
X81650000Y-92100000D03*
%TD*%
D22*
%TO.C,D10*%
X82012329Y-90105561D03*
X82437329Y-89369439D03*
X83693065Y-90094439D03*
X83268065Y-90830561D03*
%TD*%
D18*
%TO.C,U2*%
X105800000Y-95200000D03*
X105800000Y-95600000D03*
X105400000Y-95200000D03*
X105400000Y-95600000D03*
%TD*%
D23*
%TO.C,U1*%
X101950000Y-101950000D03*
X101950000Y-100650000D03*
X101950000Y-99350000D03*
X101950000Y-98050000D03*
X100650000Y-101950000D03*
X100650000Y-100650000D03*
X100650000Y-99350000D03*
X100650000Y-98050000D03*
X99350000Y-101950000D03*
X99350000Y-100650000D03*
X99350000Y-99350000D03*
X99350000Y-98050000D03*
X98050000Y-101950000D03*
X98050000Y-100650000D03*
X98050000Y-99350000D03*
X98050000Y-98050000D03*
D24*
X103337500Y-102500000D03*
X103337500Y-102000000D03*
X103337500Y-101500000D03*
X103337500Y-101000000D03*
X103337500Y-100500000D03*
X103337500Y-100000000D03*
X103337500Y-99500000D03*
X103337500Y-99000000D03*
X103337500Y-98500000D03*
X103337500Y-98000000D03*
X103337500Y-97500000D03*
D25*
X102500000Y-96662500D03*
X102000000Y-96662500D03*
X101500000Y-96662500D03*
X101000000Y-96662500D03*
X100500000Y-96662500D03*
X100000000Y-96662500D03*
X99500000Y-96662500D03*
X99000000Y-96662500D03*
X98500000Y-96662500D03*
X98000000Y-96662500D03*
X97500000Y-96662500D03*
D24*
X96662500Y-97500000D03*
X96662500Y-98000000D03*
X96662500Y-98500000D03*
X96662500Y-99000000D03*
X96662500Y-99500000D03*
X96662500Y-100000000D03*
X96662500Y-100500000D03*
X96662500Y-101000000D03*
X96662500Y-101500000D03*
X96662500Y-102000000D03*
X96662500Y-102500000D03*
D25*
X97500000Y-103337500D03*
X98000000Y-103337500D03*
X98500000Y-103337500D03*
X99000000Y-103337500D03*
X99500000Y-103337500D03*
X100000000Y-103337500D03*
X100500000Y-103337500D03*
X101000000Y-103337500D03*
X101500000Y-103337500D03*
X102000000Y-103337500D03*
X102500000Y-103337500D03*
%TD*%
D26*
%TO.C,C8*%
X100475000Y-94300000D03*
X98925000Y-94300000D03*
%TD*%
D27*
%TO.C,D13*%
X89250000Y-97850000D03*
X88896447Y-97496447D03*
X88542893Y-97142894D03*
X88189340Y-96789340D03*
X87835787Y-96435787D03*
X87287072Y-96984502D03*
X87640625Y-97338055D03*
X87994179Y-97691608D03*
X88347732Y-98045162D03*
X88701285Y-98398715D03*
%TD*%
D28*
%TO.C,R15*%
X106250194Y-80774348D03*
X107075194Y-79345406D03*
%TD*%
D12*
%TO.C,R19*%
X115025652Y-86475194D03*
X116454594Y-85650194D03*
%TD*%
D29*
%TO.C,D3*%
X120525000Y-99575000D03*
X120525000Y-100425000D03*
X119075000Y-100425000D03*
X119075000Y-99575000D03*
%TD*%
D30*
%TO.C,R47*%
X81800000Y-105600000D03*
X80150000Y-105600000D03*
%TD*%
D31*
%TO.C,D6*%
X100425000Y-120525000D03*
X99575000Y-120525000D03*
X99575000Y-119075000D03*
X100425000Y-119075000D03*
%TD*%
D32*
%TO.C,C7*%
X94500000Y-100625000D03*
X94500000Y-102175000D03*
%TD*%
D33*
%TO.C,R43*%
X84974347Y-113524806D03*
X83545405Y-114349806D03*
%TD*%
D34*
%TO.C,Q4*%
X108833910Y-80752035D03*
X108141090Y-80352035D03*
D35*
X107912500Y-81547965D03*
%TD*%
D36*
%TO.C,Q15*%
X98100000Y-78775000D03*
X97300000Y-78775000D03*
D37*
X97700000Y-79925000D03*
%TD*%
D29*
%TO.C,D9*%
X79475000Y-100425000D03*
X79475000Y-99575000D03*
X80925000Y-99575000D03*
X80925000Y-100425000D03*
%TD*%
D38*
%TO.C,D2*%
X117562670Y-89369439D03*
X117987670Y-90105561D03*
X116731934Y-90830561D03*
X116306934Y-90094439D03*
%TD*%
D30*
%TO.C,R38*%
X97750000Y-121399999D03*
X96100000Y-121399999D03*
%TD*%
D39*
%TO.C,R39*%
X93749806Y-119225651D03*
X92924806Y-120654593D03*
%TD*%
D13*
%TO.C,R12*%
X91725000Y-98350000D03*
X93375000Y-98350000D03*
%TD*%
D30*
%TO.C,R50*%
X79825000Y-97600000D03*
X78175000Y-97600000D03*
%TD*%
D15*
%TO.C,Q12*%
X78825000Y-101900000D03*
X78825000Y-102700000D03*
D16*
X79975000Y-102300000D03*
%TD*%
D40*
%TO.C,D1*%
X109894439Y-82012329D03*
X110630561Y-82437329D03*
X109905561Y-83693065D03*
X109169439Y-83268065D03*
%TD*%
D41*
%TO.C,Q14*%
X87771410Y-82654070D03*
X87078590Y-83054070D03*
D42*
X88000000Y-83850000D03*
%TD*%
D43*
%TO.C,D11*%
X89369439Y-82437329D03*
X90105561Y-82012329D03*
X90830561Y-83268065D03*
X90094439Y-83693065D03*
%TD*%
D44*
%TO.C,D7*%
X90105561Y-117987670D03*
X89369439Y-117562670D03*
X90094439Y-116306934D03*
X90830561Y-116731934D03*
%TD*%
D28*
%TO.C,R54*%
X82592056Y-87351443D03*
X83417056Y-85922501D03*
%TD*%
D45*
%TO.C,R46*%
X80342057Y-108751443D03*
X79517057Y-107322501D03*
%TD*%
D13*
%TO.C,R62*%
X102250000Y-78600000D03*
X103900000Y-78600000D03*
%TD*%
D46*
%TO.C,R22*%
X119657942Y-91248557D03*
X120482942Y-92677499D03*
%TD*%
D47*
%TO.C,Q7*%
X119047965Y-108933910D03*
X119447965Y-108241090D03*
D48*
X118252035Y-108012500D03*
%TD*%
D49*
%TO.C,R26*%
X121150000Y-102250000D03*
X121150000Y-103900000D03*
%TD*%
D50*
%TO.C,D5*%
X110630561Y-117562670D03*
X109894439Y-117987670D03*
X109169439Y-116731934D03*
X109905561Y-116306934D03*
%TD*%
D39*
%TO.C,R30*%
X117407943Y-112648557D03*
X116582943Y-114077499D03*
%TD*%
D19*
%TO.C,C5*%
X105550000Y-99100000D03*
X105550000Y-97550000D03*
%TD*%
D45*
%TO.C,R55*%
X86475194Y-84974347D03*
X85650194Y-83545405D03*
%TD*%
D51*
%TO.C,Q11*%
X82702035Y-112241090D03*
X83102035Y-112933910D03*
D52*
X83897965Y-112012500D03*
%TD*%
D53*
%TO.C,Q10*%
X91016090Y-119297965D03*
X91708910Y-119697965D03*
D54*
X91937500Y-118502035D03*
%TD*%
D46*
%TO.C,R31*%
X113524806Y-115025652D03*
X114349806Y-116454594D03*
%TD*%
D55*
%TO.C,R18*%
X112648557Y-82592056D03*
X114077499Y-83417056D03*
%TD*%
D31*
%TO.C,D12*%
X99575000Y-79475000D03*
X100425000Y-79475000D03*
X100425000Y-80925000D03*
X99575000Y-80925000D03*
%TD*%
D56*
%TO.C,R64*%
X107607969Y-99766637D03*
X108774695Y-100933363D03*
%TD*%
D55*
%TO.C,R27*%
X119225651Y-106250194D03*
X120654593Y-107075194D03*
%TD*%
D56*
%TO.C,R63*%
X99650000Y-109400000D03*
X100816726Y-110566726D03*
%TD*%
D57*
%TO.C,Q5*%
X117147965Y-87908910D03*
X116747965Y-87216090D03*
D58*
X115952035Y-88137500D03*
%TD*%
D59*
%TO.C,Q8*%
X112141090Y-117197965D03*
X112833910Y-116797965D03*
D60*
X111912500Y-116002035D03*
%TD*%
D13*
%TO.C,R14*%
X91575000Y-104000000D03*
X93225000Y-104000000D03*
%TD*%
%TO.C,R13*%
X91375000Y-99890000D03*
X93025000Y-99890000D03*
%TD*%
D49*
%TO.C,R35*%
X104200000Y-119775000D03*
X104200000Y-121425000D03*
%TD*%
D33*
%TO.C,R34*%
X108751443Y-119657942D03*
X107322501Y-120482942D03*
%TD*%
D36*
%TO.C,Q9*%
X101900000Y-121175000D03*
X102700000Y-121175000D03*
D37*
X102300000Y-120025000D03*
%TD*%
D61*
%TO.C,D4*%
X117987670Y-109894439D03*
X117562670Y-110630561D03*
X116306934Y-109905561D03*
X116731934Y-109169439D03*
%TD*%
D62*
%TO.C,C16*%
X108703984Y-98741332D03*
X109800000Y-99837348D03*
%TD*%
M02*
